/* XPM */
static char *b80791a3b8fb4aec8ea7b0c9a0ae6986[] = {
/* columns rows colors chars-per-pixel */
"64 64 138 2 ",
"   c white",
".  c #D9B674",
"X  c #CFA75B",
"o  c #DEBF96",
"O  c #FDFCFD",
"+  c #FBF6F3",
"@  c #D3EAF4",
"#  c #CA9B5B",
"$  c #F2E6D9",
"%  c #D3AB5C",
"&  c #C2E2EE",
"*  c #FAF8F8",
"=  c #FDFBF9",
"-  c #FAF4EF",
";  c #C5A454",
":  c #E0C395",
">  c #BADFEB",
",  c #E5CCA9",
"<  c #DDC086",
"1  c #DECA93",
"2  c #C3B398",
"3  c #B2DAEA",
"4  c #B4DDEC",
"5  c #BE9549",
"6  c #91C8DF",
"7  c #EFECEC",
"8  c #D6C7BA",
"9  c #B88E51",
"0  c #DDBC8C",
"q  c #EBD9C1",
"w  c #E2C69E",
"e  c #DFDDBC",
"r  c #CBB787",
"t  c #AFD6E7",
"y  c #D9EEF6",
"u  c #DCBB82",
"i  c #DFC29D",
"p  c #E5CFB4",
"a  c #CFA36F",
"s  c #C8B098",
"d  c #C19F74",
"f  c #F6EDE4",
"g  c #C5AB91",
"h  c #DBBE7A",
"j  c #F7F0E9",
"k  c #BB9B6D",
"l  c #BB9554",
"z  c #B4CFD9",
"x  c #E3F0EF",
"c  c #C7E0EA",
"v  c #78BAD5",
"b  c #D8A586",
"n  c #D3AD67",
"m  c #DABB85",
"M  c #D78484",
"N  c #E0EAE2",
"B  c #CEA15F",
"V  c #D59E73",
"C  c #DDC387",
"Z  c #D6AF6E",
"A  c #DABA7B",
"S  c #E3C8B0",
"D  c #DD7993",
"F  c #D3A973",
"G  c #DBD0CA",
"H  c #F7EFE6",
"J  c #DBCEC5",
"K  c #F4EAE1",
"L  c #E3DCD7",
"P  c #F1EEEF",
"I  c #EADBBD",
"U  c #EEDDC7",
"Y  c #DAB994",
"T  c #C8E5F4",
"R  c #C09F5A",
"E  c #E6E8D6",
"W  c #E8D7B7",
"Q  c #E6F7FD",
"!  c #EEDFCE",
"~  c #D8AD63",
"^  c #D7B285",
"/  c #D1E3DC",
"(  c #ADCFE1",
")  c #89C2DB",
"_  c #DCE1CE",
"`  c #D18D74",
"'  c #C5914D",
"]  c #DDBB70",
"[  c #D1A769",
"{  c #D7CCC9",
"}  c #D0BDAE",
"|  c #C1A37E",
" . c #9BC3D8",
".. c #ABE4F0",
"X. c #DFD3CE",
"o. c #73B4D4",
"O. c #C7A45D",
"+. c #CD925D",
"@. c #B2F1F9",
"#. c #D4DDC4",
"$. c #DA958C",
"%. c #D1D2B9",
"&. c #CC7B67",
"*. c #7DBDD8",
"=. c #DA8C8E",
"-. c #D6C8A8",
";. c #D7E7DE",
":. c #D59A8F",
">. c #DBB987",
",. c #C7946F",
"<. c #CDDACD",
"1. c #DAD1A9",
"2. c #C9D9D5",
"3. c #CEAF77",
"4. c #EAD6BF",
"5. c #D5E8E8",
"6. c #D1A07C",
"7. c #DBB094",
"8. c #E8B7C4",
"9. c #C9F3F8",
"0. c #B9F4F9",
"q. c #EEF6F2",
"w. c #7BCCE0",
"e. c #C2BA99",
"r. c #C2D1C7",
"t. c #A4D3E6",
"y. c #84BFDB",
"u. c #CEC192",
"i. c #C3B7AD",
"p. c #C7DBDD",
"a. c #A3D2E4",
"s. c #D3976E",
"d. c #C1CCBD",
"f. c #EACFC0",
"g. c #C8D5C4",
"h. c #E9CEBE",
"j. c #C9845E",
"k. c #C9AB7C",
/* pixels */
"                                                                                                                                ",
"                                                                                                                                ",
"                                                                                                                                ",
"                                                                                                                                ",
"                                                                                                                                ",
"                                                                                                                                ",
"                                                                                                                                ",
"                                                                                                                                ",
"                                                                                                                                ",
"                                                                                                                                ",
"                                                                                                                                ",
"                                                                                                                                ",
"                                                                                                                                ",
"                                                                                                                                ",
"                                                                                                                                ",
"                                                                                                                                ",
"                                                                                                                                ",
"                                                                                                                                ",
"                                                                                                                                ",
"                                                                                                                                ",
"                                                              + -                                                               ",
"                                                            K : 0 $                                                             ",
"                                                          H : #.e >.$                                                           ",
"                                                        * w I > y W 0 -                                                         ",
"                                                        q , x 3 @ q.1 p                                                         ",
"                                            = =       - o E @ v *.y E m j       = *                                             ",
"                                          - : : U =   ! w x t o.w.@.x 1 4.  O ! : 0 H                                           ",
"                                          q 1.e C w + , %. .6 ..@.0.Q e o + , < e 1 ,                                           ",
"                                        = w _ & N 1 o o r.o.4 9...4 Q E m o 1 N & #.< +                                         ",
"                                        - i N ) ) 5.C n / t > > t & y N . u ;.6 v ;.< f                                         ",
"                                        j w 5.6 v > _ . / @ & > & 4 T x < e & v *.p.< $                                         ",
"                                        - : z 6 6 a.( r _ Q @ T & > 3 / r z t.6 y. .m K                                         ",
"                                  H q 4.$ o <.4 t 4 t 2 %.T @ @ @ @ 3 <.2 ) 3 t 3 2.m ! q q H                                   ",
"                                $ u ] . A a -.y c p.t e.r z c L 8 z z u.r ( 2.c y 1.# . . . u $                                 ",
"                                , ] o p 1 Z # d.i.:.g r # h -.8.=.| A B 3.2 :.s g.[ X < p i ] ,                                 ",
"                            f W ^ % a 7.S < F k.,.D ` ^ a n h $.M ~ ~ a Y s.D ` 3.[ ~ Y 7.a % ^ W f                             ",
"                          f u A Z [ V D $.X 0 p ,.+.# Z X X % % X % X % . B V 6.S >.X ` D V a Z A u f                           ",
"                          I . S F o h.M j.' # O.; ; ; ; ; R 9 9 9 9 O.X X % C h n B # 6.=.f.o a S h I                           ",
"                          U . b M b i # 5 5 5 l k | s } 8 J G { { G J 8 } s g d R R ; n B i b M b . U                           ",
"                          + p V &.' 5 9 k g 8 L 7 * O                     O * 7 L 8 s d l 5 ' &.+.0 +                           ",
"                          + i # l k s X.7 *                                         O P X.2 k l 5 Y -                           ",
"                          K d g J P O                                                     O P G s d $                           ",
"                          O 7 *                                                                 * 7 O                           ",
"                                                                                                                                ",
"                                                                                                                                ",
"                                                                                                                                ",
"                                                                                                                                ",
"                                                                                                                                ",
"                                                                                                                                ",
"                                                                                                                                ",
"                                                                                                                                ",
"                                                                                                                                ",
"                                                                                                                                ",
"                                                                                                                                ",
"                                                                                                                                ",
"                                                                                                                                ",
"                                                                                                                                ",
"                                                                                                                                ",
"                                                                                                                                ",
"                                                                                                                                ",
"                                                                                                                                ",
"                                                                                                                                ",
"                                                                                                                                ",
"                                                                                                                                "
};
