/* XPM */
static char *c63b31c890214dbfb15c60c816a8c5ac[] = {
/* columns rows colors chars-per-pixel */
"64 51 243 2 ",
"   c gray95",
".  c #F3F3F3",
"X  c #F1F1F1",
"o  c #F4F4F4",
"O  c gray96",
"+  c gray94",
"@  c #EFEFEF",
"#  c #F6F6F6",
"$  c #F8F8F8",
"%  c #9344A0",
"&  c #F4F5F4",
"*  c #EFEEEF",
"=  c #EEEDEE",
"-  c #7A3181",
";  c #6A286E",
":  c #712B76",
">  c #F2F3F3",
",  c #D37EE8",
"<  c #EDE9E9",
"1  c #9E4DAD",
"2  c #9A519B",
"3  c #A151B0",
"4  c #823989",
"5  c #EA98FF",
"6  c #F3F4F4",
"7  c #8D4492",
"8  c #853D8B",
"9  c #8A418E",
"0  c #803589",
"q  c #88522F",
"w  c #5F2363",
"e  c #E995FF",
"r  c #8C3F98",
"t  c #DC87F1",
"y  c #9A6036",
"u  c #A35D9F",
"i  c #CD7CE1",
"p  c #F9FAF9",
"a  c #762E7C",
"s  c #AB5FB5",
"d  c #E18CF7",
"f  c #924A9C",
"g  c #B15FC2",
"h  c #6C381B",
"j  c #2D292E",
"k  c #7B4524",
"l  c #74401F",
"z  c #EBE6E6",
"x  c #EB9BFE",
"c  c #BF71CB",
"v  c #AA5AB7",
"b  c #D5C0D1",
"n  c #9F57A2",
"m  c #C470D6",
"M  c #332E35",
"N  c #A87B5C",
"B  c #252126",
"V  c #582C14",
"C  c #61311B",
"Z  c #733B5D",
"A  c #EEA1FE",
"S  c #F1A7FE",
"D  c #E2DBDB",
"F  c #E7E3E4",
"G  c #F6B8F6",
"H  c #FAC8E3",
"J  c #F4AC8F",
"K  c #E8D7D3",
"L  c #E0AD95",
"P  c #7E3486",
"I  c #873A92",
"U  c #964D9E",
"Y  c #C579D1",
"T  c #E590FC",
"R  c #9848A6",
"E  c #D983ED",
"W  c #DD8EEB",
"Q  c #F2EEEE",
"!  c #8B4A7F",
"~  c #F4F3F4",
"^  c #3B373E",
"/  c #E697F7",
"(  c #F3B4CD",
")  c #D391A2",
"_  c #DDC5BC",
"`  c #F5A584",
"'  c #FAB69B",
"]  c #3F1D11",
"[  c #9B6646",
"{  c #4C2210",
"}  c #9F53AA",
"|  c #B368B0",
" . c #DDCDDD",
".. c #B664C7",
"X. c #7A377E",
"o. c #403B43",
"O. c #A36F49",
"+. c #F2F0F1",
"@. c #D685E3",
"#. c #E2D2E0",
"$. c #48444C",
"%. c #B8B5B9",
"&. c #F29E7E",
"*. c #CA79DE",
"=. c #9A5B86",
"-. c #BE977D",
";. c #8D5E46",
":. c #5F303C",
">. c #BF775D",
",. c #E6A5BC",
"<. c #B37250",
"1. c #CCA397",
"2. c #FDC5AE",
"3. c #914A97",
"4. c #A554B5",
"5. c #CA76DC",
"6. c #8B5150",
"7. c #D5D3D6",
"8. c #D5CBD4",
"9. c #625D64",
"0. c #B46EA5",
"q. c #DCCFCC",
"w. c #E8DEDB",
"e. c #A762A7",
"r. c #A1673A",
"t. c #D0BAAB",
"y. c #9A6268",
"u. c #1F1B1F",
"i. c #DDD9DB",
"p. c #B76AC0",
"a. c #CD9AAB",
"s. c #E6916F",
"d. c #E49CE2",
"f. c #DD8A67",
"g. c #E3D3CE",
"h. c #E49EB3",
"j. c #985935",
"k. c #FBB095",
"l. c #A96589",
"z. c #F6BEA6",
"x. c #CAA8B0",
"c. c #D2886A",
"v. c #AD6993",
"b. c #C47C8D",
"n. c #C58792",
"m. c #652B60",
"M. c #47200F",
"N. c #AF75B7",
"B. c #938F97",
"V. c #A45AA8",
"C. c #D3B0B9",
"Z. c #BC69CD",
"A. c #BEA392",
"S. c #191519",
"D. c #753478",
"F. c #A8A4A8",
"G. c #B08A72",
"H. c #DA8CDE",
"J. c #CDC7C9",
"K. c #E391F8",
"L. c #534E57",
"P. c #57292A",
"I. c #F0AFC7",
"U. c #F7D9E7",
"Y. c #4D2923",
"T. c #F4C3EC",
"R. c #C581B5",
"E. c #F3E1EC",
"W. c #B08263",
"Q. c #93519E",
"!. c #F5BCD6",
"~. c #BE9E8B",
"^. c #CC7453",
"/. c #713B37",
"(. c #A76292",
"). c #E99E82",
"_. c #7E6964",
"`. c #F5AEFF",
"'. c #D991C5",
"]. c #C09198",
"[. c #CA7D5B",
"{. c #B27483",
"}. c #EAA8A5",
"|. c #A47E6E",
" X c #D49576",
".X c #C57DA3",
"XX c #A16E6A",
"oX c #E4DBE5",
"OX c #DDC3E1",
"+X c #77727D",
"@X c #A59B9D",
"#X c #C7A8C8",
"$X c #868289",
"%X c #E5B9C9",
"&X c #8F5379",
"*X c #C6AA98",
"=X c #F1D4E2",
"-X c #6E6871",
";X c #532717",
":X c #ECAAC4",
">X c #F3B9E2",
",X c #F9C0FA",
"<X c #CAAFCA",
"1X c #F0AEEE",
"2X c #D1C0B8",
"3X c #984B2C",
"4X c #D18EC2",
"5X c #C17BAD",
"6X c #F3C3B8",
"7X c #B5978F",
"8X c #B16746",
"9X c #C18667",
"0X c #75463D",
"qX c #ECB49E",
"wX c #66361C",
"eX c #A86E7C",
"rX c #E59FD4",
"tX c #B3A9AB",
"yX c #E1977A",
"uX c #CF8698",
"iX c #F6F1F0",
"pX c #5E264E",
"aX c #A567AE",
"sX c #D7B4DC",
"dX c #713165",
"fX c #935165",
"gX c #DFB7E5",
"hX c #9E719E",
"jX c #C790C5",
"kX c #BC70BD",
"lX c #A95637",
"zX c #7F7B83",
"xX c #F5B6BF",
"cX c #EDA991",
"vX c #AF7E8C",
"bX c #DA8D83",
"nX c #CC8065",
"mX c #8E7671",
"MX c #5E453C",
"NX c #9B8C88",
"BX c #C68C6C",
"VX c #EDCDBF",
"CX c #F5F2F2",
/* pixels */
"p = # * # @ # + O X o     o X O + # @ # = iXK _ K CX@ # * # @ O + o X . . X o + O @ # * # * $ = $ = # * # @ # + O X o     o X # ",
"= # @ # + O + O X o   . .   o X O + O + K VXL [ BX1.g.@ # + O + o X .     . X o + O + O @ # @ # @ # @ # + O + O X o   . .   o + ",
"# @ # @ O + O X o X .     . X o X O + g.L  Xj.[ <.r.O._ X O + o X o   . .   o X o + O + # @ # @ # @ # @ O + O X o X .     . X O ",
"* # @ # + O + o X o   . .   o X o   J.N z.L L 2.' [.y W.z X O X o X .     . X o X O + O @ # @ # @ # @ # + O + o X o   . .   o + ",
"# @ # + O + O X o X .     . X o X ~ G.9X XcXqX2.J <.[ [ t.# + o X o   . .   o X o + O + O @ # @ # @ # + O + O X o X .     . X O ",
"* O + O + O X o X .   . .   . X O F N <.>.).>.yX' |.7X9X~.+ O X o   .     .   o X o + O + O + O + O + O + O X o X .   . .   . + ",
"# + O + O + o X o   .     .   o   w.;.y <. X_.1.2.z.' ).W.z   o X .   . .   . X o X O + O + O + O + O + O + o X o   .     .   O ",
"@ O + O + o X o X .   . .   . X & F ;.l y J 6X6X2.J ` &.<.q.# X o   .     .   o X o X O + O + O + O + O + o X o X .   . .   . + ",
"# + O X o X o X .   .     .   . X ~ |.V q s.k.k.J ).s.f.O.2X> o   .   . .   .   o X o X o + O + O + O X o X o X .   .     .   o ",
"+ o X o X o X o   .   . .   .   o 6 A.C >.^.^.s.` &.&.[.y A.o   .   .     .   . X o X o X o X o X o X o X o X o   .   . .   . X ",
"O X o X o X .   .   .     .   .   & D ;.k h h lX^.s.f.j.j.W.z o   .   . .   .   .   o X o X o X o X o X o X .   .   .     .   o ",
"X o X .   .   .   .   . .   .   . > E.a.eX0Xq j.3X3Xq l q [ g.6 .   .     .   .   .   .   o X o X o X .   .   .   .   . .   .   ",
".   .   .   .   .   .     .   .   E.T.G G '.}.' yX8Xk l k q t.O   . . . . > .   .   o o O > .   .   .   .   .   .   .     .   . ",
"  .   .   .   .   .   . .   . > Q T.,X1XG '.,.' ' f.k wXwXl *X.   * X ~ Q Q   . . * D 7.i.< ~ O . .   .   .   .   .   . .   .   ",
"  .   .   .   .   .   . .   > +.=X>XG d.4XR.:Xk.` &.8XP.:./.-.  i.zX$X@XqXz.g.> = B.$.M o.9.$XJ.= o . .   .   .   .   . .   .   ",
".   .   .   .   .   .     . +.U.H T.rX0.=.R.( 2.J J ` nXl.=.|.* F mX0X;.c.>._.B.F.o.S.S.B B u.^ B.7.  . .   .   .   .     .   . ",
"X .   .   .   .   .   . > +.U.H H ,.y.:.(.d.G H xXcXk.&.b.v.XXz iX-.;.1.1.2X8.F.+Xo.M j B B j M $.9.@X=   .   .   .   . .   .   ",
"o X o X o   .   .   . >   U.H !.h.eXY.] u A `.,XG rX}.}..X=.XXz < L ~.>   6 O O z 9.j M B S.u.M o.M L.%.@   .   .   .     .   o ",
"+ o X o X o X .   .   . E.H ( ) n.tXY.M.e.e S G `.W .X'.@.5Xa.z w.z._ 6   .   . o %.M M $.L.M u.B ^ ^ +X7.O X .   .   . .   . X ",
"O X o X o X o X .   . Q H ( ) ].D F MX] u T 5 A / *.v..Xi v.,.g.#.!.x.< .   .   o +.%.L.B j ^ $.^ o.$.-Xi.  o X .   .     .   o ",
"@ O + O X o X o X . > =X( h.{.q.# = _.] ! d A 5 , c l.(.Q.:.) ,.%X>Xa.F . .   o X o . z tX9.j u.j ^ -XJ.+ o X o X .   . .   . X ",
"# + O + O X o X o   6 K ) uX{.x.+ # NX] Z t S S K.i l.2 Z ] {.I.( !.C.X .   . X o X o X $ < 7.%.F.%.F X O X o X o   .     .   O ",
"* O + O + O X o X .   @ x.b.uXn.D & 2XV :.*.S `.5 @.v.n /.V y.( :XI.%X    .   o X o + O + #   $ . $ X O + O X o X .   . .   . + ",
"# @ O + O + O X o X . . z ].b.b.x.X D q ;Xp.x S K.Y (.! wXl y.h.I.,.b 6 .   o X o + O + O + # @ # @ O + O + O X o X .     . X O ",
"* # @ O + O + o X o   . o i.vXn.n._ X N C p./ A t | =.Z wXk 7X) h.) K 6   . X o X O + O + # @ # @ # @ O + O + o X o   . .   o + ",
"# @ # @ O + O X o X .     . 8.1.[.c.g.-.XXH./ / *.u ! P.h k ~.q.a.C.= . .   o X o + O + # @ # @ # @ # @ O + O X o X .     . X O ",
"* # @ # + O + o X o   . .   O F L f.` J ` bXd.A W 0.Z { h l G.= * * 6     . X o X O + O @ # @ # @ # @ # + O + o X o   . .   o + ",
"$ @ # @ O + O + o X .     . X # z ].>.c.c.6.4X1Xd.0.Z M.wXl [ F   o   . .   o X O + O + # @ # @ # @ # @ O + O + o X .     . X O ",
"= # @ # @ O + O X o   . .   o X <X9 f e.&XQ.u l.5X0.6.M.V h q 2X# X .     . X o + O + # @ # @ # @ # @ # @ O + O X o   . .   o + ",
"$ @ # @ O + O X o X .     . . b X.0 g , g s f ; Z &X:.M.;XwXk A.X o   . .   o X o + O + # @ # @ # @ # @ O + O X o X .     . X O ",
"* # @ # + O + o X o   . . > z =.: % m m 1 u 8 : w m.pX{ { C l N <   .     . X o X O + O @ # @ # @ # @ # + O + o X o   . .   o + ",
"# @ # @ O + O X o X .     # #X: 0 3 , g n 2 X.: ; D.m.Y.{ V h O.D O   . .   o X o + O + # @ # @ # @ # @ O + O X o X .     . X O ",
"* # @ O + O + o X o   . . * hX; I .., v u 7 - a a 9 9 m.{ V h N <   .     . X o X O + O + # @ # @ # @ O + O + o X o   . .   o + ",
"# + O + O + O X o   .   . F ! : r *.i } u 7 - - a 8 2 8 P.V k O.g.O   . .   . X o + O + O + O @ # + O + O + O X o   .     . X O ",
"@ O + O + O X o X .   . &  .X.a R , *.R U 7 - a : 8 3.r dXC q r.t.> .     .   o X o + O + O + O + O + O + O X o X .   . .   . + ",
"# + O + O X o X o   .   & 8.D.- 1 E i } Q.9 - - : 4 f f 4 /.q y -.+.  . .   . X o X o + O + O + O + O + O X o X o   .     .   O ",
"@ O + O X o X o   .   . O b D.0 3 E , } n 7 - - : 4 2 U I Z q y N w.o     .   . X o X o + O + O + O + O X o X o   .   . .   . X ",
"O X o X o X o X .   .   & b X.I 3 , E 3 n 9 P - : P 2 2 r 8 6.y O._ 6 . .   .   o X o X o X o X o X o X o X o X .   .     .   o ",
"+ o X o X o X .   .   . & b 4 r 3 i t v V.7 P a : - 2 e.% r ! y r.*X.     .   .   o X o X o X o X o X o X o X .   .   . .   . X ",
"o X o X .   .   .   .   & b 8 r 3 5.t s e.7 P - ; : 3.| V.% 9 6.r.-.* . .   .   .   .   o X o X o X o X .   .   .   .     .   . ",
"X .   .   .   .   .   . & b 8 % 3 m d p.u 8 0 - ; ; 7 | | 1 % ! y G.z .   .   .   .   .   .   .   .   .   .   .   .   . .   .   ",
".   .   .   .   .   .   & 8.8 % 3 m d c u 9 4 P ; ; 7 | c v 1 R fXN w.6 .   .   .   .   .   .   .   .   .   .   .   .     .   . ",
". . . . . . . . . . . . &  .7 % 3 m t c n 8 4 P ; ; 7 s Y c v 1 f y.q.o   . . . . . . . . . . . . . . . . . . . . . . . . . . . ",
"  .   .   .   .   .   . o #.3.% 1 m t Y n 8 I 4 ; w 7 v Y i m v 1 2 C.&   .   .   .   .   .   .   .   .   .   .   .   . .   .   ",
"o   .   .   .   .   .   o #.f % 3 5.t i Q.4 r I : w 9 s Y E E 5.g 1 aX#.&   .   .   .   .   .   .   .   .   .   .   .     .   . ",
"X o X o   .   .   .   . &  .f % 4., t i Q.4 % r a w 4 } c t K.d i ..1 N.oX&   .   .   . X o X o X o X o   .   .   .   . .   .   ",
"O X o X o X o   .   .   &  .U R v E t , U 0 % % - w X.} c W / e T , g 1 N.oX&   . X o X o X o X o X o X o X o   .   .     .   o ",
"+ o X o X o X o   .   . & OX} R g d d @.U 0 % R 0 w a } p.@./ x e T , g 1 N. .o   o X o X o X o X o X o X o X o   .   . .   . X ",
"# + O + o X o X .   .   6 OXg 1 ..T T W n 0 % R I w ; U s H.A x 5 e T , Z.4.s #X<   o X O + O + O + O + o X o X .   .     .   o ",
"@ O + O + o X o X .   . & sX..1 Z.e e W U 0 % 1 r ; w 3.v @.x A x e e e d i ..s jX#.= O + O + O + O + O + o X o X .   . .   . + ",
"p * # @ # @ O + o X .   > gXZ.4.*.x 5 / V.4 f 3 % : w 7 s H.S S 5 5 5 5 5 5 W Y kXR.<X< # * # * # * # @ # @ O + o X .     . X # "
};
