/* XPM */
static char *a95ffd5252334982fa724cdb7ca20a20gADLbDBoyK9GEnIX[] = {
/* columns rows colors chars-per-pixel */
"64 64 215 2 ",
"   c #AD8C59",
".  c #B88C5B",
"X  c #B39454",
"o  c #BC955D",
"O  c #BB995C",
"+  c #BEA15F",
"@  c #B68D64",
"#  c #AE986E",
"$  c #B39264",
"%  c #B99766",
"&  c #BD9966",
"*  c #AB9576",
"=  c #B09876",
"-  c #BB9977",
";  c #B49E7C",
":  c #BFA16D",
">  c #AFA477",
",  c #BBA073",
"<  c #BEA279",
"1  c #C3935E",
"2  c #CEA65E",
"3  c #D0A757",
"4  c #D1A35E",
"5  c #D5AE5F",
"6  c #C38C65",
"7  c #C79465",
"8  c #C59C65",
"9  c #C8946C",
"0  c #C39F6C",
"q  c #C69C77",
"w  c #D39D73",
"e  c #D49D7A",
"r  c #D99F7A",
"t  c #C9A366",
"y  c #C5A26C",
"u  c #D0A860",
"i  c #D4A864",
"p  c #DAAA6C",
"a  c #CEA475",
"s  c #CAA974",
"d  c #C1A37B",
"f  c #CDA47B",
"g  c #CEAC7D",
"h  c #D9A672",
"j  c #D7A872",
"k  c #D9AA76",
"l  c #D4A37B",
"z  c #D3AA7A",
"x  c #C9B47A",
"c  c #DCB771",
"v  c #DEB37C",
"b  c #E7BA7F",
"n  c #B89C85",
"m  c #B9A685",
"M  c #B7A88A",
"N  c #BDAA96",
"B  c #B9B598",
"V  c #97ADAB",
"C  c #8DACB1",
"Z  c #92AAB4",
"A  c #8DB3BE",
"S  c #9AB6B9",
"D  c #A8B6AB",
"F  c #ADBFAF",
"G  c #B5B9A0",
"H  c #BEBAA5",
"J  c #B6BEA9",
"K  c #BCBBA9",
"L  c #A8BFB7",
"P  c #A3B6BD",
"I  c #D69F81",
"U  c #CCA686",
"Y  c #CBAD84",
"T  c #C5AC8A",
"R  c #D6AA8A",
"E  c #C7B087",
"W  c #C9B087",
"Q  c #CBBD86",
"!  c #CBB48A",
"~  c #CBBA8F",
"^  c #DEB383",
"/  c #D3B48C",
"(  c #D7B98D",
")  c #C2AE94",
"_  c #C6AA9F",
"`  c #C3B196",
"'  c #CAB493",
"]  c #CBB996",
"[  c #C3B49E",
"{  c #C3BC9E",
"}  c #C8B89F",
"|  c #D5B693",
" . c #D2BC94",
".. c #DFBF90",
"X. c #D5BD9B",
"o. c #E5B587",
"O. c #E7B994",
"+. c #C9B7A3",
"@. c #C5BBA2",
"#. c #D1BBA5",
"$. c #DDBCA5",
"%. c #C8BFB0",
"&. c #BCC1AB",
"*. c #ADC1BF",
"=. c #BEC9BB",
"-. c #CEC09D",
";. c #E4C889",
":. c #F5C28D",
">. c #E2C295",
",. c #E8C89B",
"<. c #EBC99A",
"1. c #F1C49A",
"2. c #EFD097",
"3. c #C5C2A5",
"4. c #C8C3A3",
"5. c #C7C4AD",
"6. c #D1C2A7",
"7. c #DAC4A9",
"8. c #CDCBB6",
"9. c #C8C6BA",
"0. c #CFCDBB",
"q. c #D2C5B3",
"w. c #D2CBB2",
"e. c #D7CCBB",
"r. c #DDCBBB",
"t. c #C4D0BA",
"y. c #D6D1BB",
"u. c #E1CCAC",
"i. c #FFCCA6",
"p. c #E4D0AF",
"a. c #E4C8B3",
"s. c #E1CCBC",
"d. c #EBCCBE",
"f. c #E8D8BB",
"g. c #EEE1BA",
"h. c #8EB8C9",
"j. c #96BCCB",
"k. c #ACBFCD",
"l. c #9AC2CE",
"z. c #9DC5D4",
"x. c #A8CAD6",
"c. c #B2CDD6",
"v. c #AFD1D0",
"b. c #AED5DC",
"n. c #BAD1D6",
"m. c #BCD1DB",
"M. c #ACD7E5",
"N. c #BFDBE6",
"B. c #B7DAE8",
"V. c #ACDCF0",
"C. c #B0E1EF",
"Z. c #BAEEFB",
"A. c #C4CFC7",
"S. c #CCC9C2",
"D. c #C9C9C9",
"F. c #D0CDC2",
"G. c #CFD1C2",
"H. c #CAD5CF",
"J. c #DBDEC2",
"K. c #DAD8C7",
"L. c #CBDDD6",
"P. c #C2D5DB",
"I. c #C8D7D8",
"U. c #C4DCDE",
"Y. c #D4D6D3",
"T. c #D3DBD4",
"R. c #D5DEDC",
"E. c #DBDADD",
"W. c #E8CFC2",
"Q. c #F2CFCD",
"!. c #E5D3C2",
"~. c #EAD4C4",
"^. c #E8D9C6",
"/. c #ECD3CA",
"(. c #F3D4CD",
"). c #F5D9CD",
"_. c #EED4D1",
"`. c #EEDED6",
"'. c #F3D2D2",
"]. c #FAD4D6",
"[. c #F6DBD2",
"{. c #FADBD4",
"}. c #FFD4DB",
"|. c #FCDBDB",
" X c #D9E1CC",
".X c #C8E1DD",
"XX c #DAE5D3",
"oX c #DDE3D4",
"OX c #DDEADC",
"+X c #EEE3CF",
"@X c #E4ECD5",
"#X c #EAE8D9",
"$X c #F7EAD9",
"%X c #FFEED8",
"&X c #FFF5DC",
"*X c #C4DCE9",
"=X c #D8DFE3",
"-X c #CCE8ED",
";X c #DBE3E1",
":X c #DBEAE2",
">X c #D1E5EE",
",X c #D4EBEA",
"<X c #D8F1ED",
"1X c #CBE6F3",
"2X c #C4EDF2",
"3X c #D6EAF6",
"4X c #CAF9FF",
"5X c #FFE6E1",
"6X c #F9EAE6",
"7X c #E9F3E7",
"8X c #E7F8E8",
"9X c #F2F3E7",
"0X c #E2F8F4",
"qX c #EFFFF1",
"wX c white",
/* pixels */
"}.}.}.}.}.}.}.}.}.}.}.}.}.}.}.}.}.}.}.}.}.}.}.}.}.}.}.}.}.}.}.}.}.}.}.}.}.}.}.}.}.}.}.}.}.}.}.}.}.}.}.}.}.}.}.}.}.}.}.}.}.}.}.}.",
"}.}.}.}.}.}.}.}.}.}.}.}.}.}.}.}.}.}.}.}.}.}.}.}.}.}.}.}.}.}.}.}.}.}.}.}.}.}.}.}.}.}.}.}.}.}.}.}.}.}.}.}.}.}.}.}.}.}.}.}.}.}.}.}.",
"}.}.}.}.}.}.}.}.}.}.}.}.}.}.}.}.}.}.}.}.}.}.}.}.}.}.}.}.}.}.}.}.}.}.}.}.}.}.}.}.}.}.}.}.}.}.}.}.}.}.}.}.}.}.}.}.}.}.}.}.}.}.}.}.",
"}.}.}.}.}.}.}.}.}.}.}.}.}.}.}.}.}.}.}.}.}.}.}.}.}.}.}.}.}.}.}.}.}.}.}.}.}.}.}.}.}.}.}.}.}.}.}.}.}.}.}.}.}.}.}.}.}.}.}.}.}.}.}.}.",
"}.}.}.}.}.}.}.}.}.}.}.}.}.}.}.}.}.}.}.}.}.}.}.}.}.}.}.}.}.}.}.}.}.}.}.}.}.}.}.}.}.}.}.}.}.}.}.}.}.}.}.}.}.}.}.}.}.}.}.}.}.}.}.}.",
"}.}.}.}.}.}.}.}.}.}.}.}.}.}.}.}.}.}.}.}.}.}.}.}.}.}.}.}.}.}.}.}.}.}.}.}.}.}.}.}.}.}.}.}.}.}.}.}.}.}.}.}.}.}.}.}.}.}.}.}.}.}.}.}.",
"}.}.}.}.}.}.}.}.}.}.}.}.}.}.}.}.}.}.}.}.}.}.}.}.}.}.}.}.}.}.}.}.}.}.}.}.}.}.}.}.}.}.}.}.}.}.}.}.}.}.}.}.}.}.}.}.}.}.}.}.}.}.}.}.",
"}.}.}.}.}.}.}.}.}.}.}.}.}.}.}.}.}.}.}.}.}.}.}.}.}.}.}.}.}.}.}.}.}.}.}.}.}.}.}.}.}.}.}.}.}.}.}.}.}.}.}.}.}.}.}.}.}.}.}.}.}.}.}.}.",
"}.}.}.}.}.}.}.}.}.}.}.}.}.}.}.}.}.}.}.}.}.}.}.}.}.}.}.}.}.}.}.}.}.}.}.}.}.}.}.}.}.}.}.}.}.}.}.}.}.}.}.}.}.}.}.}.}.}.}.}.}.}.}.}.",
"}.}.}.}.}.}.}.}.}.}.}.}.}.}.}.}.}.}.}.}.}.}.}.}.}.}.}.}.}.}.}.}.}.}.}.}.}.}.}.}.}.}.}.}.}.}.}.}.}.}.}.}.}.}.}.}.}.}.}.}.}.}.}.}.",
"}.}.}.}.}.}.}.}.}.}.}.}.}.}.}.}.}.}.}.}.}.}.}.}.}.}.}.}.}.}.}.}.}.}.}.}.}.}.}.}.}.}.}.}.}.}.}.}.}.}.}.}.}.}.}.}.}.}.}.}.}.}.}.}.",
"}.}.}.}.}.}.}.}.}.}.}.}.}.}.}.}.}.}.}.}.}.}.}.}.}.}.}.}.}.}.}.}.}.}.}.}.}.}.}.}.}.}.}.}.}.}.}.}.}.}.}.}.}.}.}.}.}.}.}.}.}.}.}.}.",
"}.}.}.}.}.}.}.}.}.}.}.}.}.}.}.}.}.}.}.}.}.}.}.}.}.}.}.}.}.}.}.}.}.}.}.}.}.}.}.}.}.}.}.}.}.}.}.}.}.}.}.}.}.}.}.}.}.}.}.}.}.}.}.}.",
"}.}.}.}.}.}.}.}.}.}.}.}.}.}.}.}.}.}.}.}.}.}.}.}.}.}.}.}.}.}.}.}.}.}.}.}.}.}.}.}.}.}.}.}.}.}.}.}.}.}.}.}.}.}.}.}.}.}.}.}.}.}.}.}.",
"}.}.}.}.}.}.}.}.}.}.}.}.}.}.}.}.}.}.}.}.}.}.}.}.}.}.}.}.}.}.}.}.}.}.}.}.}.}.}.}.}.}.}.}.}.}.}.}.}.}.}.}.}.}.}.}.}.}.}.}.}.}.}.}.",
"}.}.}.}.}.}.}.}.}.}.}.}.}.}.}.}.}.}.}.}.}.}.}.}.}.}.}.}.}.}.}.}.}.}.}.}.}.}.}.}.}.}.}.}.}.}.}.}.}.}.}.}.}.}.}.}.}.}.}.}.}.}.}.}.",
"}.}.}.}.}.}.}.}.}.}.}.}.}.}.}.}.}.}.}.}.}.}.}.}.}.}.}.}.}.}.}.}.}.}.}.}.}.}.}.}.}.}.}.}.}.}.}.}.}.}.}.}.}.}.}.}.}.}.}.}.}.}.}.}.",
"}.}.}.}.}.}.}.}.}.}.}.}.}.}.}.}.}.}.}.}.}.}.}.}.}.}.}.}.}.}.}.}.}.}.}.}.}.}.}.}.}.}.}.}.}.}.}.}.}.}.}.}.}.}.}.}.}.}.}.}.}.}.}.}.",
"}.}.}.}.}.}.}.}.}.}.}.}.}.}.}.}.}.}.}.}.}.}.}.}.}.}.}.}.}.}.}.}.}.}.}.}.}.}.}.}.}.}.}.}.}.}.}.}.}.}.}.}.}.}.}.}.}.}.}.}.}.}.}.}.",
"}.}.}.}.}.}.}.}.}.}.}.}.}.}.}.}.}.}.}.}.}.}.}.}.}.}.}.}.}.}.}.}.}.}.}.}.}.}.}.}.}.}.}.}.}.}.}.}.}.}.}.}.}.}.}.}.}.}.}.}.}.}.}.}.",
"}.}.}.}.}.}.}.}.}.}.}.}.}.}.}.}.}.}.}.}.}.}.}.}.}.}.}.}.}.}.}.}.}.}.}.}.}.}.}.}.}.}.}.}.}.}.}.}.}.}.}.}.}.}.}.}.}.}.}.}.}.}.}.}.",
"}.}.}.}.}.}.}.}.}.}.}.}.}.}.}.}.}.}.}.}.}.}.}.}.}.}.}.}.}.}.}.'./.|.}.}.}.}.}.}.}.}.}.}.}.}.}.}.}.}.}.}.}.}.}.}.}.}.}.}.}.}.}.}.",
"}.}.}.}.}.}.}.}.}.}.}.}.}.}.}.}.}.}.}.}.}.}.}.}.}.}.}.}.}.}.}.8.y.'.}.}.}.}.}.}.}.}.}.}.}.}.}.}.}.}.}.}.}.}.}.}.}.}.}.}.}.}.}.}.",
"}.}.}.}.}.}.}.}.}.}.}.}.}.}.}.}.}.}.}.}.}.}.}.}.}.}.}.}.}.}.G. X9XF._.}.}.}.}.}.}.}.}.}.}.}.}.}.}.}.}.}.}.}.}.}.}.}.}.}.}.}.}.}.",
"}.}.}.}.}.}.}.}.}.}.}.}.}.}.}.}.}.}.}.}.}.}.}.}.}.}.}.}.}.K.OXL.:X9X8._.}.}.}.}.}.}.}.}.}.}.}.}.}.}.}.}.}.}.}.}.}.}.}.}.}.}.}.}.",
"}.}.}.}.}.}.}.}.}.}.}.}.}.}.}.}.}.}.}.}.}.}.}.}.}.}.}.}.r.@X,XC S <X#XH |.}.}.}.}.}.}.}.}.}.}.}.}.}.}.}.}.}.}.}.}.}.}.}.}.}.}.}.",
"}.}.}.}.}.}.}.}.}.}.}.}.}.}.}.}.}.}.}.}.}.}.}.}.}.}.}.(.8.8Xb.h.j.-XXXw.+X}.}.}.Q.'.}.}.}.}.}.}.}.}.}.}.}.}.}.}.}.}.}.}.}.}.}.}.",
"}.}.}.}.}.}.}.}.}.}.}.}.}.}.}.}.}.}.}.}.}.}.F.K.q.s.%Xr.G.*.l.V.Z.2XqXJ.@.&Xs.q.^.5.].}.}.}.}.}.}.}.}.}.}.}.}.}.}.}.}.}.}.}.}.}.",
"}.}.}.}.}.}.}.}.}.}.}.}.}.}.}.}.}.}.}.}.}.}.;XR.oXy.-.w.A.Z B.4XC.b.0X@X{ 6.0.@XXXK.r.}.}.}.}.}.}.}.}.}.}.}.}.}.}.}.}.}.}.}.}.}.",
"}.}.}.}.}.}.}.}.}.}.}.}.}.}.}.}.}.}.}.}.}.'.;XP *.XX4.B R.m.B.M.M.2X<X7X{ { OXL V T.q.}.}.}.}.}.}.}.}.}.}.}.}.}.}.}.}.}.}.}.}.}.",
"}.}.}.}.}.}.}.}.}.}.}.}.}.}.}.}.}.}.}.}.}./.,Xx.A U.@XG L.3X1X*X1XB.N.0X3.J..XA h.*X9.{.}.}.}.}.}.}.}.}.}.}.}.}.}.}.}.}.}.}.}.}.",
"}.}.}.}.}.}.}.}.}.}.}.}.}.}.}.}.}.}.}.}.}.e.n.j.z.c.=.J :X0X>X1X*X-XN..XJ t.v.z.h.k.%.[.}.}.}.}.}.}.}.}.}.}.}.}.}.}.}.}.}.}.}.}.",
"}.}.}.}.}.}.}.}.}.}.}.}.}.}.}.}.}.}.].].].w.T.P.m.U.A.D H.=X3X3X3X>XP.I.F D U.m.P.Y.3.g.f.).}.}.}.}.}.}.}.}.}.}.}.}.}.}.}.}.}.}.",
"}.}.}.}.}.}.}.}.}.}.}.}.}.}.}.}.}.d. .~  .M 5.9XY.Y.0.H K S.E.=XD.S.G.&.J t.Y.E.6Xe.> Q x Q 7.|.}.}.}.}.}.}.}.}.}.}.}.}.}.}.}.}.",
"}.}.}.}.}.}.}.}.}.}.}.}.}.}.}.}.d.! ..,.,.W m 6.} ) T / d | 7.$.n U / , E ' N _ a.T : ;.2.>.| W.}.}.}.}.}.}.}.}.}.}.}.}.}.}.}.}.",
"}.}.}.}.}.}.}.}.}.}.}.}.}.}.|.~.| f z ^ 1.( Y Y - $ & v t v ^ z 7 h p i o.0 - q R q k v v a U $.(.|.}.}.}.}.}.}.}.}.}.}.}.}.}.}.",
"}.}.}.}.}.}.}.}.}.}.}.}.}.$X6.X.R e r 6 w l O.,.& & t p u 4 u 2 4 i 3 5 c o f q 1.o.h 1 . e I R  .7.|.}.}.}.}.}.}.}.}.}.}.}.}.}.",
"}.}.}.}.}.}.}.}.}.}.}.}.}.^.] ,.l o.i.9 6 6 9 s y y y 0 t O X X X X + t s g >.O.g a 7 h w i.O.l ,.~ ).}.}.}.}.}.}.}.}.}.}.}.}.}.",
"}.}.}.}.}.}.}.}.}.}.}.}.}.^.' Y 1 p :.7 @ % % # ; m ) +.s././.~./././.r.@.[ N ; = < 0 z 8 b j 8 x ! ).}.}.}.}.}.}.}.}.}.}.}.}.}.",
"}.}.}.}.}.}.}.}.}.}.}.}.}.5Xp.d   o $ $ - T u.).}.}.}.}.}.}.}.}.}.}.}.}.}.}.}.|.[.7.T < $ & &   % 7.|.}.}.}.}.}.}.}.}.}.}.}.}.}.",
"}.}.}.}.}.}.}.}.}.}.}.}.}.5X#.m * n [ !.}.}.}.}.}.}.}.}.}.}.}.}.}.}.}.}.}.}.}.}.}.}.}.}.!.#.n * # ] 5X}.}.}.}.}.}.}.}.}.}.}.}.}.",
"}.}.}.}.}.}.}.}.}.}.}.}.}.#XN M !.|.}.}.}.}.}.}.}.}.}.}.}.}.}.}.}.}.}.}.}.}.}.}.}.}.}.}.}.}.|./.` N `.}.}.}.}.}.}.}.}.}.}.}.}.}.",
"}.}.}.}.}.}.}.}.}.}.}.}.}.}.|.}.}.}.}.}.}.}.}.}.}.}.}.}.}.}.}.}.}.}.}.}.}.}.}.}.}.}.}.}.}.}.}.}.}.|.}.}.}.}.}.}.}.}.}.}.}.}.}.}.",
"}.}.}.}.}.}.}.}.}.}.}.}.}.}.}.}.}.}.}.}.}.}.}.}.}.}.}.}.}.}.}.}.}.}.}.}.}.}.}.}.}.}.}.}.}.}.}.}.}.}.}.}.}.}.}.}.}.}.}.}.}.}.}.}.",
"}.}.}.}.}.}.}.}.}.}.}.}.}.}.}.}.}.}.}.}.}.}.}.}.}.}.}.}.}.}.}.}.}.}.}.}.}.}.}.}.}.}.}.}.}.}.}.}.}.}.}.}.}.}.}.}.}.}.}.}.}.}.}.}.",
"}.}.}.}.}.}.}.}.}.}.}.}.}.}.}.}.}.}.}.}.}.}.}.}.}.}.}.}.}.}.}.}.}.}.}.}.}.}.}.}.}.}.}.}.}.}.}.}.}.}.}.}.}.}.}.}.}.}.}.}.}.}.}.}.",
"}.}.}.}.}.}.}.}.}.}.}.}.}.}.}.}.}.}.}.}.}.}.}.}.}.}.}.}.}.}.}.}.}.}.}.}.}.}.}.}.}.}.}.}.}.}.}.}.}.}.}.}.}.}.}.}.}.}.}.}.}.}.}.}.",
"}.}.}.}.}.}.}.}.}.}.}.}.}.}.}.}.}.}.}.}.}.}.}.}.}.}.}.}.}.}.}.}.}.}.}.}.}.}.}.}.}.}.}.}.}.}.}.}.}.}.}.}.}.}.}.}.}.}.}.}.}.}.}.}.",
"}.}.}.}.}.}.}.}.}.}.}.}.}.}.}.}.}.}.}.}.}.}.}.}.}.}.}.}.}.}.}.}.}.}.}.}.}.}.}.}.}.}.}.}.}.}.}.}.}.}.}.}.}.}.}.}.}.}.}.}.}.}.}.}.",
"}.}.}.}.}.}.}.}.}.}.}.}.}.}.}.}.}.}.}.}.}.}.}.}.}.}.}.}.}.}.}.}.}.}.}.}.}.}.}.}.}.}.}.}.}.}.}.}.}.}.}.}.}.}.}.}.}.}.}.}.}.}.}.}.",
"}.}.}.}.}.}.}.}.}.}.}.}.}.}.}.}.}.}.}.}.}.}.}.}.}.}.}.}.}.}.}.}.}.}.}.}.}.}.}.}.}.}.}.}.}.}.}.}.}.}.}.}.}.}.}.}.}.}.}.}.}.}.}.}.",
"}.}.}.}.}.}.}.}.}.}.}.}.}.}.}.}.}.}.}.}.}.}.}.}.}.}.}.}.}.}.}.}.}.}.}.}.}.}.}.}.}.}.}.}.}.}.}.}.}.}.}.}.}.}.}.}.}.}.}.}.}.}.}.}.",
"}.}.}.}.}.}.}.}.}.}.}.}.}.}.}.}.}.}.}.}.}.}.}.}.}.}.}.}.}.}.}.}.}.}.}.}.}.}.}.}.}.}.}.}.}.}.}.}.}.}.}.}.}.}.}.}.}.}.}.}.}.}.}.}.",
"}.}.}.}.}.}.}.}.}.}.}.}.}.}.}.}.}.}.}.}.}.}.}.}.}.}.}.}.}.}.}.}.}.}.}.}.}.}.}.}.}.}.}.}.}.}.}.}.}.}.}.}.}.}.}.}.}.}.}.}.}.}.}.}.",
"}.}.}.}.}.}.}.}.}.}.}.}.}.}.}.}.}.}.}.}.}.}.}.}.}.}.}.}.}.}.}.}.}.}.}.}.}.}.}.}.}.}.}.}.}.}.}.}.}.}.}.}.}.}.}.}.}.}.}.}.}.}.}.}.",
"}.}.}.}.}.}.}.}.}.}.}.}.}.}.}.}.}.}.}.}.}.}.}.}.}.}.}.}.}.}.}.}.}.}.}.}.}.}.}.}.}.}.}.}.}.}.}.}.}.}.}.}.}.}.}.}.}.}.}.}.}.}.}.}.",
"}.}.}.}.}.}.}.}.}.}.}.}.}.}.}.}.}.}.}.}.}.}.}.}.}.}.}.}.}.}.}.}.}.}.}.}.}.}.}.}.}.}.}.}.}.}.}.}.}.}.}.}.}.}.}.}.}.}.}.}.}.}.}.}.",
"}.}.}.}.}.}.}.}.}.}.}.}.}.}.}.}.}.}.}.}.}.}.}.}.}.}.}.}.}.}.}.}.}.}.}.}.}.}.}.}.}.}.}.}.}.}.}.}.}.}.}.}.}.}.}.}.}.}.}.}.}.}.}.}.",
"}.}.}.}.}.}.}.}.}.}.}.}.}.}.}.}.}.}.}.}.}.}.}.}.}.}.}.}.}.}.}.}.}.}.}.}.}.}.}.}.}.}.}.}.}.}.}.}.}.}.}.}.}.}.}.}.}.}.}.}.}.}.}.}.",
"}.}.}.}.}.}.}.}.}.}.}.}.}.}.}.}.}.}.}.}.}.}.}.}.}.}.}.}.}.}.}.}.}.}.}.}.}.}.}.}.}.}.}.}.}.}.}.}.}.}.}.}.}.}.}.}.}.}.}.}.}.}.}.}.",
"}.}.}.}.}.}.}.}.}.}.}.}.}.}.}.}.}.}.}.}.}.}.}.}.}.}.}.}.}.}.}.}.}.}.}.}.}.}.}.}.}.}.}.}.}.}.}.}.}.}.}.}.}.}.}.}.}.}.}.}.}.}.}.}.",
"}.}.}.}.}.}.}.}.}.}.}.}.}.}.}.}.}.}.}.}.}.}.}.}.}.}.}.}.}.}.}.}.}.}.}.}.}.}.}.}.}.}.}.}.}.}.}.}.}.}.}.}.}.}.}.}.}.}.}.}.}.}.}.}.",
"}.}.}.}.}.}.}.}.}.}.}.}.}.}.}.}.}.}.}.}.}.}.}.}.}.}.}.}.}.}.}.}.}.}.}.}.}.}.}.}.}.}.}.}.}.}.}.}.}.}.}.}.}.}.}.}.}.}.}.}.}.}.}.}.",
"}.}.}.}.}.}.}.}.}.}.}.}.}.}.}.}.}.}.}.}.}.}.}.}.}.}.}.}.}.}.}.}.}.}.}.}.}.}.}.}.}.}.}.}.}.}.}.}.}.}.}.}.}.}.}.}.}.}.}.}.}.}.}.wX"
};
