/* XPM */
static char *_a4e4c9cade640ccc8e9dbc860a39ecce3faaFnPt6FWcAr6[] = {
/* columns rows colors chars-per-pixel */
"64 64 240 2 ",
"   c #1D1D22",
".  c #1A2226",
"X  c #28252B",
"o  c #2E2C32",
"O  c #332D35",
"+  c #36343B",
"@  c #511D1D",
"#  c #4F2016",
"$  c #592618",
"%  c #6A361C",
"&  c #69341E",
"*  c #531F2A",
"=  c #562628",
"-  c #51292E",
";  c #5C2738",
":  c #662A28",
">  c #6D342B",
",  c #753826",
"<  c #642939",
"1  c #6B3639",
"2  c #7A4529",
"3  c #7B4737",
"4  c #3C3942",
"5  c #5E2B40",
"6  c #433D45",
"7  c #6A3344",
"8  c #6C334F",
"9  c #763959",
"0  c #6A256B",
"q  c #733569",
"w  c #6D2676",
"e  c #732D74",
"r  c #762C78",
"t  c #742C7C",
"y  c #783676",
"u  c #79327D",
"i  c #47444B",
"p  c #574F54",
"a  c #784643",
"s  c #755049",
"d  c #7E435B",
"f  c #685866",
"g  c #6A6469",
"h  c #76696E",
"j  c #7D797D",
"k  c #823E21",
"l  c #89462C",
"z  c #894D34",
"x  c #915034",
"c  c #955B3A",
"v  c #803D67",
"b  c #82387C",
"n  c #834946",
"m  c #895848",
"M  c #945749",
"N  c #8E5459",
"B  c #A75A43",
"V  c #8D6554",
"C  c #9C6B57",
"Z  c #A66749",
"A  c #B46748",
"S  c #A56B5A",
"D  c #B17154",
"F  c #B8755A",
"G  c #874967",
"H  c #935768",
"J  c #884775",
"K  c #8B557B",
"L  c #925A71",
"P  c #9A6668",
"I  c #966F75",
"U  c #A67667",
"Y  c #B3736B",
"T  c #A4687B",
"R  c #A97A77",
"E  c #C47A5D",
"W  c #C97C68",
"Q  c #9A8078",
"!  c #B88569",
"~  c #AB847B",
"^  c #B68B74",
"/  c #B68578",
"(  c #C8896A",
")  c #D88A6A",
"_  c #C48B78",
"`  c #C8957B",
"'  c #D9967A",
"]  c #E59A77",
"[  c #742C81",
"{  c #7B3383",
"}  c #7C3A85",
"|  c #843C85",
" . c #853D8B",
".. c #893E8C",
"X. c #873E92",
"o. c #894589",
"O. c #924B86",
"+. c #8E5B87",
"@. c #975688",
"#. c #8B4293",
"$. c #8B4598",
"%. c #934B92",
"&. c #94499A",
"*. c #944B9B",
"=. c #9A569A",
"-. c #A25A8C",
";. c #A2599A",
":. c #936F90",
">. c #A6688A",
",. c #AF728F",
"<. c #B9798A",
"1. c #A76597",
"2. c #A6749C",
"3. c #8E4AA1",
"4. c #934BA2",
"5. c #9B4EA8",
"6. c #9D52A4",
"7. c #9D56AA",
"8. c #A557AA",
"9. c #A45AAD",
"0. c #A759B6",
"q. c #9E6FA5",
"w. c #AB68A8",
"e. c #A477A9",
"r. c #B775AB",
"t. c #AA63B7",
"y. c #B569BA",
"u. c #AA79B6",
"i. c #C17E88",
"p. c #C67BAB",
"a. c #C37ABD",
"s. c #B05FC0",
"d. c #B869C8",
"f. c #BE72C9",
"g. c #BE71D1",
"h. c #C476C9",
"j. c #C374D5",
"k. c #C677D7",
"l. c #CB7BDD",
"z. c #D07EE3",
"x. c #8F898D",
"c. c #A98E8A",
"v. c #BA848A",
"b. c #B99384",
"n. c #BD8597",
"m. c #B79697",
"M. c #BCA49B",
"N. c #B291AC",
"B. c #ABA3A7",
"V. c #B9ACAF",
"C. c #C78785",
"Z. c #C69889",
"A. c #D39986",
"S. c #C78791",
"D. c #CB979B",
"F. c #D39595",
"G. c #E89D87",
"H. c #DCA688",
"J. c #CAA498",
"K. c #D8AA98",
"L. c #DFB199",
"P. c #E9A789",
"I. c #F2A98C",
"U. c #EAAB96",
"Y. c #F2AC99",
"T. c #EBB597",
"R. c #F4B59A",
"E. c #CA97A6",
"W. c #D59EAA",
"Q. c #C485B8",
"!. c #CD92B5",
"~. c #D296B4",
"^. c #E29AB2",
"/. c #C7A9AA",
"(. c #DAA6A7",
"). c #D8B5A9",
"_. c #CCAFB3",
"`. c #D8ABB9",
"'. c #D7B9B8",
"]. c #E7A7A8",
"[. c #EAB9A8",
"{. c #F5B9A5",
"}. c #E7A9B7",
"|. c #EFAEB5",
" X c #DBC2BC",
".X c #F7C2A5",
"XX c #E6C5B9",
"oX c #B784C5",
"OX c #C684C4",
"+X c #CE91CE",
"@X c #D597CC",
"#X c #D487DA",
"$X c #E39CD2",
"%X c #DAA9C4",
"&X c #D9BBC4",
"*X c #D2B3D2",
"=X c #EBABC2",
"-X c #E8B5C6",
";X c #F6B4CA",
":X c #EDAFD3",
">X c #D382E3",
",X c #D686E9",
"<X c #D584EA",
"1X c #DA88EA",
"2X c #DD98E6",
"3X c #E39AEB",
"4X c #E38FF5",
"5X c #E897F8",
"6X c #ED9AF9",
"7X c #E8A9E6",
"8X c #F7B3EF",
"9X c #F5B8E8",
"0X c #EAA2F7",
"qX c #F5A7FC",
"wX c #CCC2C5",
"eX c #DCC6C5",
"rX c #D9C4D6",
"tX c #E7CAC9",
"yX c #EBD3CB",
"uX c #F3D4CB",
"iX c #EACAD5",
"pX c #F6C5D3",
"aX c #E9D8D8",
"sX c #F5D8DB",
"dX c #F2DBDC",
"fX c #F5E2DE",
"gX c #DEC9E1",
"hX c #E4CDE4",
"jX c #F3CBE9",
"kX c #EBD8E4",
"lX c #F4DCE6",
"zX c #F5CAF2",
"xX c #F5E4E3",
"cX c #F8E7E7",
"vX c #F4E4E9",
"bX c #FBEBEC",
"nX c #FAE1F3",
"mX c #FBEDF2",
"MX c #FFF3F5",
"NX c #FFFCFC",
/* pixels */
"MXMXMXMXMXMXMXMXMXMXMXMXMXMXMXMXMXMXbXfXuXsXbXMXMXMXMXMXMXMXMXMXMXMXMXMXMXMXMXMXMXMXMXMXMXMXMXMXMXMXMXMXMXMXMXMXMXMXMXMXMXMXMXMX",
"MXMXMXMXMXMXMXMXMXMXMXMXMXMXMXMXbXxXuX[.` A.).tXbXMXMXMXMXMXMXMXMXMXMXMXMXMXMXMXMXMXMXMXMXMXMXMXMXMXMXMXMXMXMXMXMXMXMXMXMXMXMXMX",
"MXMXMXMXMXMXMXMXMXMXMXMXMXMXMXbXuXXXL.( Z F / Z.).dXbXMXMXMXMXMXMXMXMXMXMXMXMXMXMXMXMXMXMXMXMXMXMXMXMXMXMXMXMXMXMXMXMXMXMXMXMXMX",
"MXMXMXMXMXMXMXMXMXMXMXMXMXMXcXtX[.H.( D D F F S U ).dXMXMXMXMXMXMXMXMXMXMXMXMXMXMXMXMXMXMXMXMXMXMXMXMXMXMXMXMXMXMXMXMXMXMXMXMXMX",
"MXMXMXMXMXMXMXMXMXMXMXMXMXbXtX_ U.U.H.H.T.I.' F S R '.MXMXMXMXMXMXMXMXMXMXMXMXMXMXMXMXMXMXMXMXMXMXMXMXMXMXMXMXMXMXMXMXMXMXMXMXMX",
"MXMXMXMXMXMXMXMXMXMXMXMXMXyXD.W ' P.U.T..XR.' D Z S J.fXMXMXMXMXMXMXMXMXMXMXMXMXMXMXMXMXMXMXMXMXMXMXMXMXMXMXMXMXMXMXMXMXMXMXMXMX",
"MXMXMXMXMXMXMXMXMXMXMXMXMX X/ W ( ' H.H.U.T.' F D U Z.tXmXMXMXMXMXMXMXMXMXMXMXMXMXMXMXMXMXMXMXMXMXMXMXMXMXMXMXMXMXMXMXMXMXMXMXMX",
"MXMXMXMXMXMXMXMXMXMXMXMXMX'.S D F ( ` ! ` U.P.( ' _ Z.'.bXMXMXMXMXMXMXMXMXMXMXMXMXMXMXMXMXMXMXMXMXMXMXMXMXMXMXMXMXMXMXMXMXMXMXMX",
"MXMXMXMXMXMXMXMXMXMXMXMXMX/.M B D ( ( S A.T.{.R.R.P.` J.cXMXMXMXMXMXMXMXMXMXMXMXMXMXMXMXMXMXMXMXMXMXMXMXMXMXMXMXMXMXMXMXMXMXMXMX",
"MXMXMXMXMXMXMXMXMXMXMXMXMX/.m l c ( P.U.{..X{.R.P.P.( ^ dXMXMXMXMXMXMXMXMXMXMXMXMXMXMXMXMXMXMXMXMXMXMXMXMXMXMXMXMXMXMXMXMXMXMXMX",
"MXMXMXMXMXMXMXMXMXMXMXMXMX_.V , x E P.R.{.R.R.P.] ] ( ! uXbXMXMXMXMXMXMXMXMXMXMXMXMXMXMXMXMXMXMXMXMXMXMXMXMXMXMXMXMXMXMXMXMXMXMX",
"MXMXMXMXMXMXMXMXMXMXMXMXMXeXU , x F ' P.I.I.P.] ] ) F F XXbXMXMXMXMXMXMXMXMXMXMXMXMXMXMXMXMXMXMXMXMXMXMXMXMXMXMXMXMXMXMXMXMXMXMX",
"MXMXMXMXMXMXMXMXMXMXMXMXMXaXb.3 M D F E ) ] ] ] ] ( A D K.xXMXMXMXMXMXMXMXMXMXMXMXMXMXMXMXMXMXMXMXMXMXMXMXMXMXMXMXMXMXMXMXMXMXMX",
"MXMXMXMXMXMXMXMXMXMXMXMXMXcX'.N n z l l A E ) ] ) A c Z ^ aXMXMXMXMXMXMXMXMXMXMXMXMXMXMXMXMXMXMXMXMXMXMXMXMXMXMXMXMXMXMXMXMXMXMX",
"MXMXMXMXMXMXMXMXMXMXMXMXMXmXiXv.P n , l c B A A A x x c ! yXbXMXMXMXMXMXMXMXMXMXMXMXMXMXMXMXMXMXMXMXMXMXMXMXMXMXMXMXMXMXMXMXMXMX",
"MXMXMXMXMXMXMXMXMXMXMXMXMXmXlX`.E.T N S F A B x l k l z C  XcXMXMXMXMXMXMXMXMXMXMXMXMXMXMXMXMXMXMXMXMXMXMXMXMXMXMXMXMXMXMXMXMXMX",
"MXMXMXMXMXMXMXMXMXMXMXMXMXnXjX9X9X%XW.].Y.G.) A l , , 3 m /.fXMXMXMXMXMXMXMXMXMXMXMXMXMXMXMXMXMXMXMXMXMXMXMXMXMXMXMXMXMXMXMXMXMX",
"MXMXMXMXMXMXMXMXMXMXMXMXmXnXzX9X9X%X~.}.{.Y.G.E x , > 1 s m.aXMXMXMXMXMXMXMXMXMXMXMXMXMXMXMXMXMXMXMXMXMXMXMXMXMXMXMXMXMXMXMXMXMX",
"MXMXMXMXMXMXMXMXMXMXMXMXnXzX8X7X$X@X~.}.{.Y.P.) B , : > a ~ tXMXcX'._.'.tXsXdXcXmXMXMXaXV.x.j j x.B.&XvXMXMXMXMXMXMXMXMXMXMXMXMX",
"MXMXMXMXMXMXMXMXMXMXMXmXjX9X7X+Xa.Q.~.}.|.R.I.] W M n 9 n ~ eXMXdXc.U R Z.(.(.'.eXaXaXB.g + . . + p h B.wXaXMXMXMXMXMXMXMXMXMXMX",
"MXMXMXMXMXMXMXMXMXMXmXnXjX:X!.1.;.r.~.-XpX|.Y.Y.U.C.Y T P R  XMXfXb.M M Y C.Y R m./.V.h O . . . . X X + g B.aXvXmXMXMXMXMXMXMXMX",
"MXMXMXMXMXMXMXMXMXmXnXjX:XE.L 9 +.N.$X:XpX;X|.].].G.S.<.T I '.MXxXJ.C U J.(.'.eXeX/.c.p X o X X . X X o 6 f j B.aXMXMXMXMXMXMXMX",
"MXMXMXMXMXMXMXMXmXlXjX-XE.L 7 ; K Q.7X9X9X9X:X=X|.].F.,.>.I '.MXcX).b.J.aXdXxXcXvXaXeXI 6 o X X     X o + i i g V.kXMXMXMXMXMXMX",
"MXMXMXMXMXMXMXmXlXiX%XW.m.N * * K OX7X7X8X8X7X$X^.^.~.r.2.,.eXMXcXXX).tXMXMXMXMXMXMXmXV.g O o O O X X X O + + i :.wXMXMXMXMXMXMX",
"MXMXMXMXMXMXMXcXiX`.E./.'.I - - K oX3X0XqXqX3X+Xp.!.!.Q.r.E.iXbXcXuXtXsXMXMXMXMXMXMXMXaXB.i 4 6 6 6 O X X o + 4 f B.MXMXMXMXMXMX",
"MXMXMXMXMXMXcXiX`.E.`.dXcXm.- - K OX3X0X0X6X1Xh.r.r.Q.r.2.~.iXsXlXpX'.tXMXMXMXMXMXMXMXmXaXB.f 4 O O + 4 + + 4 i g B.MXMXMXMXMXMX",
"MXMXMXMXMXbXiX`.E.W.iXbXMX/.s - d r.3X6XqX4X#Xa.1.>.>.@.G n.`.-XpX;X}.tXmXMXMXMXMXMXMXMXmXkXwXB.I p + X o O 6 f B.aXMXMXMXMXMXMX",
"MXMXMXMXMXlX`.W.v.D.sXmXMX'.V - 9 w.3X6XqX4X#Xa.>.T L d 7 >.W.=X;X;X=XiXmXMXMXMXMXMXMXMXMXMXMXvXwXB.x.j j :.x.B.aXMXMXMXMXMXMXMX",
"MXMXMXMXMXdX/.n.<.S.-XbXMXeXQ - 8 1.2XqXqX5X,Xh.1.T G 7 ; P E.;X;X;X=XiXMXMXMXMXMXMXMXMXMXMXMXMXMXMXMXMXbXcXMXMXMXMXMXMXMXMXMXMX",
"MXMXMXMXMXvX&Xv.S.S.E.dXMXdXM.1 < @.#XqXqX6X1XOXw.-.G 7 < H D.=X=X=X-XsXMXMXMXMXMXMXMXMXMXMXMXMXMXMXMXMXMXMXMXMXMXMXMXMXMXMXMXMX",
"MXMXMXMXMXmXdXE.S.i.v.'.cXcX'.s < K OX6XqX6X,Xh.w.@.d 7 7 N S.}.|.}.-XsXMXMXMXMXMXMXMXMXMXMXMXMXMXMXMXMXMXMXMXMXMXMXMXMXMXMXMXMX",
"MXMXMXMXMXMXbXeXE.v.v.J.tXxXtXP 1 J h.3X0X3X#Xy.;.J 9 1 a P S.(.}.W.-XlXMXMXMXMXMXMXMXMXMXMXMXMXMXMXMXMXMXMXMXMXMXMXMXMXMXMXMXMX",
"MXMXMXMXMXMXMXbX'.D.Z.C.).yXyX~ n @.OX2X0X2Xh.w.@.9 1 > 3 / D.(.(.W.tXvXMXMXMXMXMXMXMXMXMXMXMXMXMXMXMXMXMXMXMXMXMXMXMXMXMXMXMXMX",
"MXMXMXMXMXMXMXMXxXtX/._ _ L.XXZ.R n.@X3X0X#Xy.;.J 7 : , z ^ ).XX`.'.lXMXMXMXMXMXMXMXMXMXMXMXMXMXMXMXMXMXMXMXMXMXMXMXMXMXMXMXMXMX",
"MXMXMXMXMXMXMXMXMXvXyXK._ A.K.K.F.D.!.7X7X2Xh.1.G < : , 2 U '.cXxXvXmXMXMXMXMXMXMXMXMXMXMXMXMXMXMXMXMXMXMXMXMXMXMXMXMXMXMXMXMXMX",
"MXMXMXMXMXMXMXMXMXMXbXtXF.C.C.A.F.<.,.@X7X2XOX1.d = $ , 2 C ).bXMXMXMXMXMXMXMXMXMXMXMXMXMXMXMXMXMXMXMXMXMXMXMXMXMXMXMXMXMXMXMXMX",
"MXMXMXMXMXMXMXMXMXMXmXsXE.<.T <.<.T >.Q.@X@XQ.,.d = $ % , c J.fXMXMXMXMXMXMXMXMXMXMXMXMXMXMXMXMXMXMXMXMXMXMXMXMXMXMXMXMXMXMXMXMX",
"MXMXMXMXMXMXMXMXMXmXlX%X1.O.-.1.@.@.=.;.1.w.r.>.G = $ $ % 2 ^ yXMXMXMXMXMXMXMXMXMXMXMXMXMXMXMXMXMXMXMXMXMXMXMXMXMXMXMXMXMXMXMXMX",
"MXMXMXMXMXMXMXMXMXvX&X@.| &.y.h.y.9.8.%.y y J G 7 = # $ % 2 ! XXMXMXMXMXMXMXMXMXMXMXMXMXMXMXMXMXMXMXMXMXMXMXMXMXMXMXMXMXMXMXMXMX",
"MXMXMXMXMXMXMXMXmXrXe.u  .7.f.h.0.8.;...e 0 q 9 ; = # $ % , C ).bXMXMXMXMXMXMXMXMXMXMXMXMXMXMXMXMXMXMXMXMXMXMXMXMXMXMXMXMXMXMXMX",
"MXMXMXMXMXMXMXMXkXV.o.{ $.t.j.f.8.8.&.b r 0 0 8 5 = # $ % % m Z.bXMXMXMXMXMXMXMXMXMXMXMXMXMXMXMXMXMXMXMXMXMXMXMXMXMXMXMXMXMXMXMX",
"MXMXMXMXMXMXMXMXrX2.q } 4.d.j.y.8.;.%.b r w w q 9 ; = # $ % x b.xXMXMXMXMXMXMXMXMXMXMXMXMXMXMXMXMXMXMXMXMXMXMXMXMXMXMXMXMXMXMXMX",
"MXMXMXMXMXMXMXmX_.+.e } 9.g.k.0.9.=...{ t t { } J 9 ; @ $ % c Z.xXMXMXMXMXMXMXMXMXMXMXMXMXMXMXMXMXMXMXMXMXMXMXMXMXMXMXMXMXMXMXMX",
"MXMXMXMXMXMXMXvXN.o.e X.t.j.k.0.8.&...{ u t {  .o.b 8 = $ % c ` sXbXMXMXMXMXMXMXMXMXMXMXMXMXMXMXMXMXMXMXMXMXMXMXMXMXMXMXMXMXMXMX",
"MXMXMXMXMXMXmXkXe.u r $.d.l.j.0.7.&. .{ { t { #.%.o.q < : 2 c ^ tXbXMXMXMXMXMXMXMXMXMXMXMXMXMXMXMXMXMXMXMXMXMXMXMXMXMXMXMXMXMXMX",
"MXMXMXMXMXMXmXiXe.y u &.f.l.j.0.5.&. .{ { r u o.%.o.b 8 1 3 c ! [.bXMXMXMXMXMXMXMXMXMXMXMXMXMXMXMXMXMXMXMXMXMXMXMXMXMXMXMXMXMXMX",
"MXMXMXMXMXMXmXrXq.y { &.h.z.j.0.5.&. .[ u e y | %.%.o.q 8 n c D H.fXMXMXMXMXMXMXMXMXMXMXMXMXMXMXMXMXMXMXMXMXMXMXMXMXMXMXMXMXMXMX",
"MXMXMXMXMXMXmXrX:.y | 6.h.>Xj.0.5.&. .{ u e y | &.&.o.b 9 n M Z _ uXbXMXMXMXMXMXMXMXMXMXMXMXMXMXMXMXMXMXMXMXMXMXMXMXMXMXMXMXMXMX",
"MXMXMXMXMXMXmXrX:.u  .6.h.>Xk.0.7.&.X.{ u e e | &.&.#.b v N M Z F XXbXMXMXMXMXMXMXMXMXMXMXMXMXMXMXMXMXMXMXMXMXMXMXMXMXMXMXMXMXMX",
"MXMXMXMXMXMXmXrXq.} #.8.h.>Xl.0.8.&. .{ u e e b =.6.&.| J G N C F ).fXMXMXMXMXMXMXMXMXMXMXMXMXMXMXMXMXMXMXMXMXMXMXMXMXMXMXMXMXMX",
"MXMXMXMXMXMXmXrXq.} #.7.f.>Xl.0.9.&. .{ u e e u &.9.6.%.o.G H N S K.dXMXMXMXMXMXMXMXMXMXMXMXMXMXMXMXMXMXMXMXMXMXMXMXMXMXMXMXMXMX",
"MXMXMXMXMXMXmXrXq.o.#.5.f.>Xz.s.0.&. .{ u e e u &.9.9.=.O.J G N S Z.yXMXMXMXMXMXMXMXMXMXMXMXMXMXMXMXMXMXMXMXMXMXMXMXMXMXMXMXMXMX",
"MXMXMXMXMXMXmX*Xq.#.$.7.d.z.>Xd.0.&. .{ { e w r $.9.t.9.%.o.J H P / tXMXMXMXMXMXMXMXMXMXMXMXMXMXMXMXMXMXMXMXMXMXMXMXMXMXMXMXMXMX",
"MXMXMXMXMXMXmX*Xq.#.&.8.d.z.,Xg.9.%.| { { t w t #.9.y.t.8.%.O.K H ~ eXbXMXMXMXMXMXMXMXMXMXMXMXMXMXMXMXMXMXMXMXMXMXMXMXMXMXMXMXMX",
"MXMXMXMXMXMXmXrXe.#.&.8.d.z.,Xg.9.%.| } { t w t #.9.y.y.w.6.%.O.L R '.cXMXMXMXMXMXMXMXMXMXMXMXMXMXMXMXMXMXMXMXMXMXMXMXMXMXMXMXMX",
"MXMXMXMXMXMXmXrXe.$.&.8.d.z.,Xg.9.%.| | { t w t #.9.y.h.y.0.6.%.K I _.lXMXMXMXMXMXMXMXMXMXMXMXMXMXMXMXMXMXMXMXMXMXMXMXMXMXMXMXMX",
"MXMXMXMXMXMXmXhXu.$.&.5.d.z.,Xj.9.%.|  .} [ w w #.8.y.h.h.d.0.6.@.+.!.kXMXMXMXMXMXMXMXMXMXMXMXMXMXMXMXMXMXMXMXMXMXMXMXMXMXMXMXMX",
"MXMXMXMXMXMXmXhXu.$.4.5.d.z.,Xj.9.%.|  . .[ w w X.6.y.k.l.l.d.t.6.@.N.*XmXMXMXMXMXMXMXMXMXMXMXMXMXMXMXMXMXMXMXMXMXMXMXMXMXMXMXMX",
"MXMXMXMXMXMXmXhXu.3.4.8.g.z.,Xk.9.%. .#.X.{ w w  .6.y.k.>X1Xl.g.t.7.w.+XjXmXMXMXMXMXMXMXMXMXMXMXMXMXMXMXMXMXMXMXMXMXMXMXMXMXMXMX",
"MXMXMXMXMXMXmXhXu.3.4.9.j.>X,Xl.9.#. .$.#.{ w 0 | 6.y.k.,X4X1X>Xj.t.7.w.+XkXmXMXMXMXMXMXMXMXMXMXMXMXMXMXMXMXMXMXMXMXMXMXMXMXMXMX",
"MXMXMXMXMXMXmXgXu.4.4.0.k.,X,Xl.9.#. .$.$.} e 0 { &.t.k.1X5X5X4X1Xj.t.9.u.@XkXmXMXMXMXMXMXMXMXMXMXMXMXMXMXMXMXMXMXMXMXMXMXMXMXMX",
"MXMXMXMXMXMXmXgXoX5.5.0.l.1X1X>X9.X. .&.$.| e 0 u &.0.j.,X5X6X5X4X,Xj.t.7.u.*XhXmXMXMXMXMXMXMXMXMXMXMXMXMXMXMXMXMXMXMXMXMXMXMXMX",
"MXMXMXMXMXMXmXgXoX7.5.s.z.4X1X>X9.X. .4.4. .r 0 r &.0.g.,X4X6X6X5X5X1Xj.0.7.e.+XhXvXMXMXMXMXMXMXMXMXMXMXMXMXMXMXMXMXMXMXMXMXMXMX",
"MXMXMXMXMXMXmXgXoX0.5.d.,X4X4X>X0.#. .&.4.X.[ 0 w #.9.d.>X5X6X6X5X6X4X,Xk.d.t.t.oX*XnXmXMXMXMXMXMXMXMXMXMXMXMXMXMXMXMXMXMXMXMXNX"
};
