/* XPM */
static char *ef00fd32c7854a35ad33671d66b1a849[] = {
/* columns rows colors chars-per-pixel */
"64 90 256 2 ",
"   c #0C1707",
".  c #12160C",
"X  c #141A0D",
"o  c #161A09",
"O  c #0E1715",
"+  c #141B12",
"@  c #161B15",
"#  c #090B06",
"$  c #0D270B",
"%  c #13240C",
"&  c #15290C",
"*  c #183608",
"=  c #0D2915",
"-  c #142512",
";  c #142B12",
":  c #1B2C14",
">  c #1A2518",
",  c #183517",
"<  c #0C3512",
"1  c #242A17",
"2  c #26371A",
"3  c #29310B",
"4  c #161B25",
"5  c #161C3B",
"6  c #182726",
"7  c #1B233B",
"8  c #1A332B",
"9  c #242927",
"0  c #262B3A",
"q  c #27353A",
"w  c #353B37",
"e  c #313729",
"r  c #2D0E18",
"t  c #503517",
"y  c #55382F",
"u  c #653A2F",
"i  c #643D13",
"p  c #184719",
"a  c #114917",
"s  c #284819",
"d  c #194724",
"f  c #174B29",
"g  c #284827",
"h  c #394738",
"j  c #34502C",
"k  c #3E603D",
"l  c #454A3A",
"z  c #475838",
"x  c #544C34",
"c  c #6A4E33",
"v  c #50663B",
"b  c #67693E",
"n  c #5C441B",
"m  c #181E40",
"M  c #1D2442",
"N  c #1E2949",
"B  c #1F344E",
"V  c #222645",
"C  c #232A45",
"Z  c #242C4B",
"A  c #292E4D",
"S  c #282C46",
"D  c #25314D",
"F  c #2B334D",
"G  c #2B3847",
"H  c #343949",
"J  c #282D52",
"K  c #2C3352",
"L  c #2A3657",
"P  c #333B55",
"I  c #363A58",
"U  c #352D48",
"Y  c #383C63",
"T  c #2D3D61",
"R  c #573A46",
"E  c #453D56",
"W  c #4B344D",
"Q  c #503C64",
"!  c #6C3547",
"~  c #3B4448",
"^  c #3A4258",
"/  c #30494A",
"(  c #3C4567",
")  c #444948",
"_  c #475745",
"`  c #575847",
"'  c #474659",
"]  c #574857",
"[  c #595757",
"{  c #524E4F",
"}  c #684946",
"|  c #665447",
" . c #775858",
".. c #6D4F54",
"X. c #58684B",
"o. c #576E4F",
"O. c #697748",
"+. c #656B54",
"@. c #677655",
"#. c #787A55",
"$. c #736B4A",
"%. c #464769",
"&. c #564967",
"*. c #47526B",
"=. c #484B72",
"-. c #554B74",
";. c #4B5676",
":. c #565679",
">. c #54586C",
",. c #675878",
"<. c #6C5070",
"1. c #5A657A",
"2. c #54676D",
"3. c #726D72",
"4. c #8A6A36",
"5. c #8A5A52",
"6. c #8C6D52",
"7. c #B76D56",
"8. c #B8735A",
"9. c #AC6B51",
"0. c #98577A",
"q. c #8D556E",
"w. c #876768",
"e. c #926F6F",
"r. c #B87866",
"t. c #B77B76",
"y. c #A9746F",
"u. c #A55579",
"i. c #C3775C",
"p. c #C06D51",
"a. c #C47B64",
"s. c #CA7C64",
"d. c #C77968",
"f. c #C87979",
"g. c #CE7973",
"h. c #933F61",
"j. c #6B853B",
"k. c #788458",
"l. c #72834E",
"z. c #7B8A6B",
"x. c #8A8D57",
"c. c #AC8F57",
"v. c #888866",
"b. c #899665",
"n. c #969A69",
"m. c #968A73",
"M. c #AE8B73",
"N. c #9AA569",
"B. c #9BA372",
"V. c #A5A778",
"C. c #ACB174",
"Z. c #9FA75B",
"A. c #CB8369",
"S. c #D2856C",
"D. c #D58A6D",
"F. c #D98C6E",
"G. c #D58468",
"H. c #CB8476",
"J. c #D58B72",
"K. c #DB8D72",
"L. c #D48676",
"P. c #DD9174",
"I. c #D89377",
"U. c #D29373",
"Y. c #E19475",
"T. c #E29679",
"R. c #E08C74",
"E. c #D1AF78",
"W. c #C4C976",
"Q. c #BEC76C",
"!. c #5C5D82",
"~. c #725B8A",
"^. c #5B6686",
"/. c #5E708F",
"(. c #6C6A8D",
"). c #666788",
"_. c #74698C",
"`. c #68758A",
"'. c #786B95",
"]. c #6A7796",
"[. c #747294",
"{. c #797798",
"}. c #71718D",
"|. c #737EA1",
" X c #955B88",
".X c #8A5985",
"XX c #A75C85",
"oX c #BA5E87",
"OX c #986789",
"+X c #986594",
"@X c #85779A",
"#X c #977B99",
"$X c #896A8F",
"%X c #A86589",
"&X c #B7688B",
"*X c #BB7986",
"=X c #BA6B95",
"-X c #AB7293",
";X c #967DA4",
":X c #8777A2",
">X c #BA6CA3",
",X c #B275A4",
"<X c #C76D88",
"1X c #C57484",
"2X c #C97589",
"3X c #C76D99",
"4X c #C57394",
"5X c #C97493",
"6X c #C4749B",
"7X c #CA739B",
"8X c #C87A96",
"9X c #D17B88",
"0X c #C876A3",
"qX c #CA6EA3",
"wX c #78869B",
"eX c #78848D",
"rX c #7A87A5",
"tX c #778EA8",
"yX c #8F8B91",
"uX c #AE8C8E",
"iX c #B6B788",
"pX c #B5AF8D",
"aX c #8687A6",
"sX c #9785A4",
"dX c #8594AC",
"fX c #8998B4",
"gX c #9694B4",
"hX c #AA87A6",
"jX c #B489A7",
"kX c #B893AC",
"lX c #B898B4",
"zX c #AA95B4",
"xX c #94A4BB",
"cX c #8DA2B7",
"vX c #B1ABB2",
"bX c #CD8A8B",
"nX c #C9B18F",
"mX c #C796B1",
"MX c #CAA5B5",
"NX c #E9B39B",
"BX c #B9C28A",
"VX c #D1D0A8",
"CX c #E6D9B0",
"ZX c #D5D7A8",
"AX c #98A8C4",
"SX c #9BB3CC",
"DX c #A5B6CC",
"FX c #A7BAD6",
"GX c #AEADCD",
"HX c #ABA9CB",
"JX c #C8B1D2",
"KX c #CEB9E2",
"LX c #B2C7DB",
"PX c #B7CBE4",
"IX c #CACDE6",
"UX c #E5E7DA",
/* pixels */
"f.f.f.d.g.s.s.G.G.S.a.r.8.7.7.A.K.Y.D.D.D.s.S.D.P.P.T.S.S.P.D.A.7.9.9.7.d.d.a.s.G.G.A.D.G.G.Y.D.D.H.t.3.' *.%.I -.^.wXIXMXMXMX-X",
"f.f.f.d.g.g.s.D.S.S.s.d.a.7.9.a.P.K.D.D.J.D.G.D.J.K.T.J.S.J.D.J.7.9.9.7.i.a.d.A.A.S.S.D.G.G.K.D.I.H.y.3.{ ' I %.:.^.DXLXmXMXmX-X",
"f.f.f.f.f.g.H.L.L.L.L.L.s.8.9.8.I.P.K.J.J.D.S.S.S.J.T.J.S.S.A.S.9.9.9.8.a.d.d.A.A.A.A.S.D.F.P.J.H.M.e. .' ^ ^ :.^.rXIXvXlXMXmX0.",
"1X1Xf.f.f.f.f.H.H.S.L.L.S.a.9.A.T.J.P.J.J.J.S.S.D.K.T.T.J.D.A.A.7.9.7.a.d.d.d.s.U.U.J.A.S.J.J.I.r.y.w.] H G I ;.).GXIXvXlXmXmX0.",
"1X1X1X1X1X1Xf.H.H.g.L.S.S.a.9.r.P.D.P.D.D.K.J.J.K.P.T.T.P.D.A.A.8.9.8.a.a.s.s.A.A.U.I.J.D.D.S.H.t. ...] I K L ( ).PXvXvXmXmXmX0.",
"1X1X<X2X2X2X9XbXH.H.L.S.S.A.9.7.J.P.P.J.D.K.K.P.P.P.K.K.P.D.S.A.i.7.a.a.d.s.s.A.I.U.H.D.J.J.H.M.y...] E P P ( ;.].PXzXlXmXmX,Xq.",
"<X<X2X5X5X2X9X9Xf.H.S.S.J.K.a.7.D.Y.P.P.F.D.F.P.T.Y.P.P.P.K.D.S.i.7.a.a.s.s.s.A.NXnXD.G.S.D.J.M.w.[ ] P K L *./.fXGXlXlXmXMX-Xq.",
"<X<X5X8X5X5X2X9Xf.L.L.S.A.P.s.9.S.T.P.P.J.G.F.P.P.Y.Y.P.P.F.G.G.i.7.8.8.i.i.s.A.U.U.S.K.K.S.H.y. .' ' I I L ( /.DXgXlXMXMXmX-X0.",
"2X2X2X5X4X5X8Xf.9XL.L.S.D.J.J.7.A.P.Y.Y.P.F.G.T.Y.Y.K.F.K.K.D.G.s.7.7.7.7.p.i.r.y.M.D.G.K.L.r.e.[ ' I I L L ( rXSXgXmXmXMXkX0.0.",
"1X*X4X4X8X2X<X2Xf.L.L.L.J.J.J.7.i.P.P.P.P.P.F.P.K.P.Y.K.K.K.F.G.s.7.8.8.i.i.a.r.t.bXs.G.L.H.y.5.] ^ I P L T ;.fXxXsXmXmXmXjXOX0.",
"t.uXbX*X5X5X<X<Xf.f.L.L.K.J.K.i.9.F.P.P.P.P.Y.D.K.K.K.K.Y.Y.K.D.s.8.a.a.s.a.A.r.t.bXg.K.H.M.e...E P P L L T ].DXaXsXmXmXmX-X-XOX",
"e x e.8X2X2X2X<Xf.9XH.H.L.J.R.G.7.D.T.Y.P.Y.T.P.Y.K.D.F.Y.T.K.S.s.8.d.a.s.a.H.y.e.MXf.L.t.e.w...E K K K L ( dXHXaXhXkXjXhX#XjXjX",
"& 1  .uX*X2X1X2X1Xf.f.f.H.L.R.D.7.i.J.J.J.P.J.P.Y.K.F.K.T.T.P.D.a.8.a.8.s.a.t.5.w.MXt.t.e. .[ ] I K K K L ;.AXAXsXlXjX-X,XhXkXjX",
", ; `  .5.*X1X2X2X1X1Xf.H.L.K.J.D.A.P.P.T.T.K.Y.K.K.Y.Y.Y.Y.P.P.A.8.a.r.d.a.t.5.3.JX*Xy. .] ' ^ H K K K L /.FXxXhXMXkXjXhXjXhXhX",
"; % : 1 | uX*X1X2X<X2Xf.f.L.J.J.I.A.J.P.Y.Y.K.J.D.K.P.P.P.K.K.P.D.A.a.a.d.A.t.} $XJX-X5.] ' ( ( F H P P I rXLXdXzXlXkXhXhXhXhXjX",
"$ , & 1 l y ..1X1X<X1Xf.f.f.H.L.S.s.D.F.P.J.T.J.J.J.K.P.P.K.J.J.D.A.8.r.a.A.y.u 3.JX-X .' ^ ^ L A H G I ( fXFX{.lXjXkXhXhXhXhXkX",
"% & : % $ 1 u *X1Xf.1Xf.f.f.H.bXg.S.S.P.P.F.G.P.S.J.J.P.Y.K.K.J.F.s.8.a.d.H.w.u w.hXyX[ &.I K A F G ^ P =.HXHXyXmXkXkXhXOX#XkXkX",
"& % : , ; 2 ..*X1X1X1X1Xf.f.f.f.g.S.G.F.P.P.F.P.K.K.K.P.Y.Y.Y.K.D.G.i.a.d.H.w...uX3.3.[ ' ^ K P F ^ ^ ^ :.FXgXsXMXkXkXhX-XOXhXhX",
"$ $ $ e +.m.uX*X1X<X2X1X1X1Xf.f.f.S.S.G.Y.Y.K.P.J.J.J.P.P.P.K.K.D.G.a.H.d.t. ...#X$X3.3.I I J L P P ^ >.^.FX[.$XkXkXkXhXhX#X#X$X",
"$ $ ; , e y } *X1X2X2X<X2X2X2Xf.f.L.L.S.Y.Y.P.P.K.P.P.P.Y.Y.P.J.R.s.A.d.t.w.R &.3.#XJX3.H I K L L I I *.].IX,.sXkXkXzXhXhX#X_.<.",
"; $ , - 1 y ..*X2X<X<X5X2X2X2X1Xf.f.L.L.T.P.P.P.K.P.P.P.P.P.K.J.D.s.S.a.e...W <.~.;XKXsX' I L L L Y I %.dXIX,.lXkXjXhX#X#XsX,.&.",
"% & , : { w.e.y.5X4X5X5X5X2X2X2Xf.f.L.L.I.I.P.P.J.J.J.S.G.S.G.J.S.g.s.d.w.<.Q ~.~.@XJXsX,.C P L ( Y %.*.xXDX<.hXkXhX#XsXsXhX,.-.",
"& ; $ e  .q.0.%X4X5X6X4X4X4X5X5X2X1X9XbXL.I.I.I.K.K.J.A.s.S.D.J.K.S.i.A.w. .Q <.~.;XHXsX&.H G ^ I ( %.*.LXxXE hXlXhXsXsXsXsX-.%.",
"% ; 1 [ w.q.0.u.=X6X6X6X6X6X7X4X5X2X2XbXf.bXbXI.L.L.L.g.d.s.S.L.J.a.s.d.w.] &.~.'.@XzXJX3.0 H P ( ( %.;.LXdX] hXjX;XsX#X#X#X-.%.",
"; - 1 w.u.h.u.u.&X7X6X6X6X6X3X3X5X2X2X9XbXf.bXbXL.L.L.g.g.g.g.g.H.H.a.r.! <.~.~.'.:XzXKXGXU I I I =.( 1.LX`.&.jXhX;X@X@X#X@X%.Y ",
"% y w.*X4Xu.0.XX&X7X6X6X6X6X7X3X5X5X2X8X2X2X9X9X9X9Xf.f.bXg.d.d.H.t.H.5.W $X:X~.:X:XsXJXIX).V %.E &.*.^.LX1.,.lXsXsX;X;X#X@X%.Y ",
"y e.bX8X7XoXu.0.&X7X7X6X6X6X7X3X7X7X<X5X5X2X2X2X9X9X9X2Xf.f.f.f.t.t.*X..W :X'.~.'.'.hXlXJXHXJ I W ' *./.SX*.,.zX;X;X@X@X@X@X-.%.",
"*X*X2X<X7X7X0.XXXX6X0X7X7X6X7X3X7X7X=X4X5X5X2X2X2X2X8X2X1X9Xt.f.y.uXOXR &.~.~.'.'.:X@XzXHXJX:.U ] ] %.].AX( 3.sX@X@X@X@X@X:X,.-.",
"2X1X2X5X4X6XXX0.XX6X0X7X7X6X6X6X7X7X3X=X7X7X5X5X5X5X5X4X5X2Xt.1X! OX<.W <.JXsX~.'.'.:X;XzXKXgXU } ..^ ].AX%.{.sX@X@X@X@X@X@X:.=.",
"*X8X1X5X6X=X0X0.0.=X6X5X5X4X6X6X7X7X6X&X6X7X5X5X5X6X7X6X4X*XbXq.r W Q <.<.zX$X,.~.~.~.~.$X#XGX' u  .' fXAX%.{.aX@X'.@X[.'.'.-.%.",
"l w.uX8X6X0X0X&X0.&X4X5X5X5X6X6X4X6X6X=X=X6X7X6X0X6X0X6X6X8X*X! W W -.-...q.w.&.:.-.-.-.Q Q ,.] u 5.' FXAX( }.@X{.'.{.[.'.(.-.%.",
"; w y e.6X3XqX0XXX=X4X5X5X5X6X6X4X4X6X=X&X7X6X7X6X0X0X6X4X8Xu.-XOXQ ,._.jX5.uXuX,.@XsX;X,.$X,.e y } ' FXgXY (.@X[._.{.{.{.(.-.%.",
"$ 2 > e -X7XqXqX3X%X*X1X2X<X0X3X4X6XqX3X&X=X7X7X6X6X0X8X4X8XuX-X<.3.3.kXy.y $.pXe.hXzXvXzXzXHX#X..3.1.DXaX%.[.{.(.(.[.[.{.}.:.%.",
", , ; [ -X6X3XqX3X&X&X&X*X<X6X6X4X7X3X3XXX&X3X3X0X6X6X=X5Xu.e...e.uXM.M.u t t 6.w.} ..{ [  .] $X&.W *.DX].*.{.[.(.:.{.[.[.[.=.( ",
"; ; ; X.yX-X6XqX6X-X0.0.%X&X=X>X6X7X3XqXXX&X7X3XqX0X6X0X=X! W { pXM.NXc.i c n c  .yXuX| w.m.x yX] 0 *.DX`.*.(.(.:.).[._.[.).( %.",
"& ; , 2 9 ..bX&X=XOXq.q.OX%X%X=X=X3X3XqXXXXX7X3XqX0X0X>X6X-X>.[ pX4.E.c.i c i 4.6.uXMX| V.CX$.m.<.' `.SX;.;.].(.).(._.[.[.).=.%.",
"% % ; , , ` uX%XOX<.<.3.,..XOX%X=X=X>X>X%XXX3X3XqX0X>X0X0X,X>.[ C.4.E.E.9.i 4.E.nXnXnXm.nXCX6.nX3.P `.SX( ;.{.[.:.(.'.[.(.!.%.=.",
"- : , * s 2 | OX<.] &.<.&.<..XOX%X%X=X=X-X X=XqXqX>X>X>X>X,X!.2.pXE.E.U.9.4.4.c.nXnXM.e.nXnXx.CX[ I fXSX( ^.{.!.-.[._.[.[.:.Q =.",
"- % , $ * : l ` [ ' ' &.' &.,.$X0. X+X%X-X XXX>X>X0X>X>X>X+X(.1.3.6. . .5.c c 6.5.6.} pXm.c 6.m.) ^ DXAX*.^.^.!.(.[.).[.[.(.:.Y ",
"- $ $ , * , $ 8 ) ) E E ' ' &.<.,..X.X+X-X X.X=X>X>X>X>X-X+X).>.] ..w.w.5.} 6.6.e.M...UXuXm.uXm.E %.LXtX( ^.).(.(._.[.(.(.[.%.%.",
"- - % , ; $ $ d / q H I ^ I ' &.,.$X+X+X+X+X X-X,X>X=X>X+X<.-.E  . .w.5.5.5.5.5.5...5.5.6.6.uXy.E ;.LXwX( ^.(.(.(.[.(.[.{.^.Y =.",
"$ - % : : , < , 8 6 G ^ P K I &.&.,.~.$X+X X.X+X+X%XXX+X.X-.%.' ] R y R } u u u u u u y c u } ..&.^.FXwX*.^.).{._.[.[.(.(.%.%.=.",
"% - % - ; , < , ; = 6 G P P I I %.&.-.<..X X.X X.X X X+X_.%.I ' W R R R ..x | y } }  .y  .y R W -.^.SX^.;.:.!.{.[.[.[.(.^.=.=.%.",
"; & % - = = < , ; 8 8 / K K I I I %.-.,..X+X Xq.+X X+X$X-.I I H H ' ) ) | ` $.x c | | | | l E &.:.(.SX/.;.).(.[._.(.[.[.(.:.%.( ",
"% % - > ; = = = ; h / / L K I P I Y &.<.~.+X+X<..X<.,.&.I K P F U U w ) ` ` +.v $.b x +.x l H %.=.].SX].;.(.[.'.,.).@X[.{.:.Y %.",
"% % > - ; ; : $ 8 h / L L L I K P P I &.<.$X+X<..X$X,.Q Y I F C A S ~ [ X.X.@.#.k.#.k.#.v.3.' %.;.].FX].].{.:X@X,._.@X{.[.!.Y -.",
"$ % ; % % ; 2 ; , q G D D D K P A C K %.-.~.$X<.-.,.E K K K Z S V S ~ [ _ z X.@.O.l.#.O.k.z.^ ( ;.].FX^.].(.@X{._.:X{.@X(.).%.-.",
"= $ - - & % : : = 8 G K L J Z F C 7 C K Y %.,.Q E &.K I K J Z C Z C G { v z X.X.O.O.O.O.O.X./ ( ;.rXLX/.:.(.{.@X'.sX@X{.(.:.-.%.",
"= = - - % % ; , , 8 0 D K D D D C 5 V P I I %.E K K I K K K A N Z A 0 ~ b.b.v @.k.b.n.B.#.w K ( ;.rXFX`.(.{.@X@X@X@X@X{.(.!.=.%.",
"= = - - % & = , = 6 7 F K F D D C 5 7 F K I I K M V K A K K D Z N L V ~ iXC.O.k.N.b.x.iXyX0 I %.^.tXDX(.{.{.@XsXsX@X@X'.(.!.=.%.",
"% - - - % & ; , = 6 7 S A A D D Z 7 5 V A P K A 5 M A A A A Z Z J Z S h pXV.#.#.b.N.N.VXyX0 ( ( ;.fXDX^.(.[.@XsXsX@X_.).).!.=.( ",
"% % % % & $ ; , = 6 7 V S F K D S V 5 5 Z K K A m 5 Z Z Z Z Z N N J S w pXV.O.#.l.N.N.ZXyX^ ^ ( *.AXAX).}.@X@XsXsX@X_.).!.;.%.Y ",
"% & & & $ ; , , = = 7 V A K K K S C 5 5 M F F A M 5 V V Z Z Z N N Z C H iXiXv.k.b.C.N.CXyXP P %.:.SXxX}.aXaX@XsX@X@X_.).:.%.Y ( ",
"% % - ; ; = = = 6 6 7 M Z K K K A S 7 5 5 Z F K Z 5 V Z Z Z Z N J N S ) pXiXv.k.N.N.N.ZXeXP %.%.^.FXfX).aX@X:X@X'._.!.!.:.%.( =.",
"% % - - ; = 6 8 8 6 5 5 V A A K F F C 5 5 M A K Z 5 V Z Z Z A Z Z K S H pXC.k.n.N.N.BXUXeXK %.*./.FXfX(.{.@XaX@X_.).-.:.-.( ( ( ",
"& % = = 6 8 8 q q 7 5 5 V Z A A K K A M 5 5 C A V 5 M Z Z Z A A D Z S ~ pXV.k.b.N.x.BXUX1.Y *.*./.FXrXrXaXaX:X@X[.(.:.:.%.L L Y ",
"% - = 8 8 G 0 0 G V 5 5 M Z A A K F F A 7 5 M Z Z 5 M Z N Z N D D K C w pXiXO.b.N.Z.C.UX1.%.*.;.].FXdXrXaXsX:X_._.(.-.=.Y L L Y ",
": : 8 q G D G F F Z m 5 m Z Z Z K F S A C 5 5 Z Z 5 5 Z Z Z N D K K F ) pXiXk.k.N.N.BXCX3.%.*.*.].FXrXrXaXaX@X)._.(.:.%.Y Y L L ",
"  > 9 ~ P D S C Z J Z 5 5 M C Z F F S S A M 5 M A M 5 Z Z Z Z D D K S ) pXV.#.b.B.N.BXCXz.1.*.;.].DX].{.aXaX@X_.(.).).=.( ( L L ",
"x | l H P K V A Z K J M 5 m M S S F S C A S M 7 Z V 5 A Z A A Z D K S ) pXn.b x.B.N.iXZXv.eX1.^.].DX`.{.aX@X@X{.(.^.!.;.;.( Y L ",
"M.M.e.W I A Z A Z J K C m 5 7 A A Z Z A A J A M 7 M 5 C C S D Z L F H [ VXB.$.x.B.n.VXVXz.3.}.^.rXFX`.].aX{.aXaXrX).:.^.^.( Y L ",
"8.r.M...U A F Z Z D A Z M 5 7 A K Z Z K J A A Z 5 M M M Z S D D K F H 3.VXn.k.n.V.B.VXVXk.3.`.].wXSX/.].aXaXaXaX[.).^.^.;.L I ( ",
"p.7.t.w.0 I K F D J D D N M 7 A K A Z J J A Z A M 7 M 7 S S F K K P G 3.pX6.l.B.iXV.BXCXb.z.1.].tXFX`.].fXgXaXwX).^.^.^.( L ( ^.",
"8.8.r.w.W U F D D D J D Z M V A F K D Z J A C S C 7 M 5 J Z D P P P G yXpX#.n.n.V.V.BXZXb.z.1.].tXFX].rXxXxXrX{.dX{.].`.;.*.;.`.",
"6.5.6.e...U G D D J J D N N C V A L L L Z K F C C M 5 m A K J L I %.' yXpX#.n.iXn.b.N.VXk.z.1.].fXFX^.dXAXAX{.wXdX{.^.1.).).1.' ",
"n n c 6.e.) G G P A Z D Z M M V K D D L D A C C M M 5 5 M Z Z J K ^ ~ yXm.#.nXnXx.n.C.iXb.z.`.dXAXLX`.dXAXfXwXrXdXrX^.*.).1.H 6 ",
"3 2 i 6.m.` 8 h H U A J A V V V K F Z D A A C Z Z Z M 5 C K K K K P ~ yXv.v.ZXpX#.B.B.BXk.@.aXrXFXPXrXfXcXfXdXfXwXrX|.].].H @ 6 ",
"t t 5.6.x 2 g j w U A J Z A A C K P F S S K A Z K K M 7 S H G H K ' ) 3.#.pXCXV.$.iXV.BX@.o.eXdXDXPXcXAXxXcXdXrXrXrX].dX].6 6 > ",
"r.r.r.5.3 , g j 8 q F J A D D B K P G S S K J J J K C 4 6 6 6 0 ^ ' { e.#.pXVXV.v.V.iXiX@.o.eXwXDXPXcXAXxXAXfXwX{.rXrXfX' 4 > % ",
"7.r.r.c 3 p p p d f G P K D B D K L F F S A J J J K 7 4 O O O 6 ^ ^ [ m.6.pXVXv.n.V.ZXVX@._ eXwXDXPXcXDXAXxXfXrXtXtXtX{.G 6 +   ",
"8.8.9.t 1 , a f f f G P P K K K K K J K Z Z Z J J A 7 O O + O O C ~ [ v.6.nXnX6.V.CXCXZX@._ `.rXxXLXfXDXDXcXdXrXtXrXrX;.7 @ . o ",
"9.8.y.c % , d f a f / G K I I F K K J L Z Z Z A V F 0 O O X + O 7 H [ v.M.VXm.v.V.CXUXVXX._ eXfXAXLXrXcXAXfXdXrX].].).*.4 @ . o ",
"9.9.M.e.1 ; , p f f q G G S U S S A J J Z A 0 0 S V U 9 O + @ 4 D G ` v.nXVX6.n.iXCXCXk.` ) `.fXAXPXtXcXfXdXrX].^.!.;.G 4 O . o ",
"9.6.c x +.e o 3 , , q H G 0 9 0 0 S Z J A 0 4 4 0 F H H 9 @ 0 0 F H w m.nXnXx.b.nXCXB.j ` ) >.AXSXFXfXAXfXfXrX/.^./.1.^ 6 > X o ",
"b 3 s s b m.5.c c x l 9 9 9 1 9 9 0 A A 0 4 . . 4 0 U ^ 0 4 0 H F ~ w 6.NXM.6.n.nXnXb v _ w }.xXFXLXfXfXfXdX].].^.).%.q 6 @ . o ",
"* s j p n c.8.8.r.y. .@ > : 1 1 > 9 q 0 6 O . + 4 4 0 S 6 O 4 S P q l 6.nXM.v.V.VXn.z z l ) wXtXLXLXfXxXdXwX{.).^.^.^ 4 @ . X X ",
", g p j j b 6.8.7.r.y.c 1 $ : & > > 6 6 @ + X . . @ O 0 0 4 H H ~ ) l 6.nXM.$.m.VXX.j z z l `.fXLXPXfXfXfXrXfX{.:.1.~ @ + X @ . ",
"< p s j s 3 n 8.7.8.t.6.s g g ; : > > -     + . @ . O @ @ @ 4 6 9 w x m.nXc.$.v.#.h z z z h 1.xXLXPXtX].dXdXrX].).>.q + X X . + ",
"< p p p f s 6.r.7.r.y.#.p p k j , : : &     @ + + . .   . .   O @ h | M.nXv.$.#.[ e l h l h ~ xXPXPXdX].rXdXrX:.1.~ > - X + . @ ",
"< p a a a s 6.r.r.5.n 2 a a g g 2 : & & o X @ .   X X   . X .   > l ` V.nXnXw.3.) h h h e h [ dXLXIXrX1.aXfXaX1.q 6 > X X X + . ",
", p f f p s b e.$.t & p a a a g p p g 2             % ; %   X # 1 l w.uXuXbXw.+.) h h h h h { yXLXyX0 9 2.}.2.H @ 9 + X + + . X ",
", p a a a p z x 3 1 , p a a p p p g g k z j 2 & % $ g g g % .     l #.e.e.uX3.[ ) h g g ~ w ) eXyX> 6 9 @ 9 + > @ . X X . . X > ",
"j z j j j z z 2 & 3 , , d , , , p g d k o.o.o.k , * a a g 2     % z @.v.w. .[ [ ~ e h h h w ) ~ > > @ > @ . > + . + + + @ . +   ",
"2 z @.o.X.o.o.j : 2 ; $ ; ; ; : : = , g g X.z * * * p p p g ,     k @.#.3.[ ] { w h h e h l l > 6 > O + @     X + . . . X + . > ",
"o 2 o.X.o.o.o.o.X.g & ; : ; > : : $ ; g g o.o.j * * * * p * s O.j h @.z.+.) [ { w h l h l _ l > - > + X X X > X . + . + . + + X ",
"o 2 +.X.o.o.o.o.@.2   - > X X + + > , _ o.k.z.x.b b j.j.x.j.Z.BXl.j z @.X.` [ h h h l l e e w X   + + X + . # o o   X > . . .   ",
"  2 +.+.X.o.@._ 2 % X + X X X . . > : z z.b.N.C.W.Q.W.Q.C.W.W.l.* g g g _ _ k h g h e > > > > + + X . o . . + X X X 1 # @ w e 9 ",
"% & l +.+.+.X.1   o X o X X X X + X % 2 k.b.x.x.Z.Z.Z.c.c.c.4.3 * , , , d d g 2 e 2 : o X + @ + X X   X X   X . X @ # { vXyXvXUX",
"X %   j X.+.` o o o X X X X X X +   o & O.b.k.l.l.x.6.6.c.c.x.l.#.@.v j g j z z h % X X X + + + . X X . . X X . X   9 UXvXw yXUX",
"X %   % & j ` 1 o o X X + X X X + X o % v O.v v b b b 6.r.c.x.x.b.b.z.@.@.o.o.@.h o o X X + + + . X X . . X . . @ # 3.UXvX[ vXUX"
};
