/* XPM */
static char *_e66f4009d5f43f5e98aa1a5ad22c5caxSTvBDb7aAhzWmLY[] = {
/* columns rows colors chars-per-pixel */
"64 64 227 2 ",
"   c None",
".  c #1A3C0F",
"X  c #2D6C1E",
"o  c #326B1E",
"O  c #31661B",
"+  c #2C711F",
"@  c #17763E",
"#  c #1C773A",
"$  c #17793D",
"%  c #1A7A3E",
"&  c #2A6E29",
"*  c #386D25",
"=  c #2D7322",
"-  c #267C23",
";  c #2A7B23",
":  c #2A722C",
">  c #27752C",
",  c #347422",
"<  c #397522",
"1  c #347C24",
"2  c #3C7C23",
"3  c #347B29",
"4  c #237433",
"5  c #2C7938",
"6  c #317935",
"7  c #436927",
"8  c #437929",
"9  c #5A7739",
"0  c #68773A",
"q  c #4F4F36",
"w  c #1E7D40",
"e  c #2C7B44",
"r  c #397E4B",
"t  c #367845",
"y  c #5D794E",
"u  c #6D7646",
"i  c #797646",
"p  c #667853",
"a  c #7F7658",
"s  c #8C6D49",
"d  c #887855",
"f  c #977552",
"g  c #8C724E",
"h  c #A5775A",
"j  c #AF6F5A",
"k  c #B87967",
"l  c #A07561",
"z  c #C77667",
"x  c #D5736C",
"c  c #DD776F",
"v  c #DC7874",
"b  c #E47373",
"n  c #E97376",
"m  c #EA7A7B",
"M  c #E56F72",
"N  c #1F8323",
"B  c #1C8D2A",
"V  c #1E8C27",
"C  c #1C922A",
"Z  c #139F2E",
"A  c #1C9C2F",
"S  c #178C36",
"D  c #1A823B",
"F  c #198738",
"G  c #169134",
"H  c #159B30",
"J  c #1B9D31",
"K  c #1C9435",
"L  c #248526",
"P  c #218926",
"I  c #29832A",
"U  c #278828",
"Y  c #3E8425",
"T  c #33852B",
"R  c #348D2B",
"E  c #378728",
"W  c #28982B",
"Q  c #3C9229",
"!  c #379529",
"~  c #21833D",
"^  c #27883C",
"/  c #2A8C3C",
"(  c #348C32",
")  c #3D8836",
"_  c #259C35",
"`  c #2E913B",
"'  c #279738",
"]  c #33963A",
"[  c #359A39",
"{  c #399D3A",
"}  c #389835",
"|  c #14A02E",
" . c #1BA32F",
".. c #1BA232",
"X. c #17A130",
"o. c #22A62F",
"O. c #24A82F",
"+. c #2DAA2F",
"@. c #33A22E",
"#. c #23A634",
"$. c #24A830",
"%. c #2DAC31",
"&. c #2AA638",
"*. c #3DA535",
"=. c #31AD31",
"-. c #3BAB35",
";. c #3EA339",
":. c #35A739",
">. c #35B031",
",. c #3CB432",
"<. c #418C26",
"1. c #448929",
"2. c #429127",
"3. c #449429",
"4. c #46992A",
"5. c #4A9C2C",
"6. c #4A962C",
"7. c #598735",
"8. c #49973A",
"9. c #559936",
"0. c #47833B",
"q. c #609D3B",
"w. c #4CA32D",
"e. c #49A72E",
"r. c #4AAD36",
"t. c #40A539",
"y. c #45AB38",
"u. c #45A835",
"i. c #54A532",
"p. c #56A939",
"a. c #43B533",
"s. c #4BB237",
"d. c #46B933",
"f. c #4BBA33",
"g. c #49B63B",
"h. c #52B433",
"j. c #53BD35",
"k. c #58B936",
"l. c #50AD2F",
"z. c #64AB3D",
"x. c #62BE3B",
"c. c #6DB33D",
"v. c #56C134",
"b. c #59C135",
"n. c #5DC339",
"m. c #63C43E",
"M. c #298345",
"N. c #388948",
"B. c #389F40",
"V. c #38AA41",
"C. c #459B48",
"Z. c #539143",
"A. c #599748",
"S. c #499752",
"D. c #5A9D54",
"F. c #53864B",
"G. c #6C8A4C",
"H. c #6E9153",
"J. c #45A543",
"K. c #4CA545",
"L. c #58A84A",
"P. c #58B647",
"I. c #56B350",
"U. c #51AA52",
"Y. c #78AC43",
"T. c #65B849",
"R. c #73BB49",
"E. c #6BB959",
"W. c #6CA542",
"Q. c #768F63",
"!. c #67AC61",
"~. c #77B469",
"^. c #6AC548",
"/. c #72C54B",
"(. c #75CA4D",
"). c #7DC956",
"_. c #6CC351",
"`. c #7AC465",
"'. c #858853",
"]. c #94815E",
"[. c #8F964E",
"{. c #A8815E",
"}. c #B38E5D",
"|. c #AF915B",
" X c #87A94A",
".X c #84B652",
"XX c #9EA259",
"oX c #878A6D",
"OX c #829865",
"+X c #9D9C72",
"@X c #A48A67",
"#X c #B68F78",
"$X c #8DA364",
"%X c #84BC6E",
"&X c #98B260",
"*X c #B9A876",
"=X c #ACAD6D",
"-X c #C98366",
";X c #D9827B",
":X c #C98F79",
">X c #C1A77B",
",X c #85CC5C",
"<X c #84C95C",
"1X c #8CCD63",
"2X c #86C86A",
"3X c #97D16C",
"4X c #8DC472",
"5X c #97CB76",
"6X c #9DD274",
"7X c #92CE68",
"8X c #A4D37B",
"9X c #A9D57C",
"0X c #A2D476",
"qX c #CC9488",
"wX c #DA948C",
"eX c #D79A89",
"rX c #D59087",
"tX c #EB8C8B",
"yX c #E68785",
"uX c #E59C94",
"iX c #ED9999",
"pX c #E89693",
"aX c #F39B9C",
"sX c #F19597",
"dX c #EA908F",
"fX c #CDA383",
"gX c #B5D886",
/* pixels */
"b.b.b.b.b.b.=.Z Z =.b.b.b.b.b.j. .| | f.b.b.b.b.b.b.b.b.b.b.b.b.b.b.b.b.b.b.b.y.% % % % / b.b.j. .| | | | | ,.b.b.b.  b.b.b.b.b.",
"b.b.b.b.b.b.%.Z Z =.b.b.b.b.b.j. .| | f.b.b.b.b.b.b.b.b.b.b.b.b.j.j.b.b.b.b.b.y.% % % % / b.b.j. .Z Z Z Z Z ,.b.b.b.  b.b.b.b.b.",
";.t.j.b.b.b.P...V 2.b.b.b.b.b.j. .| | f.b.b.b.b.b.b.b.b.b.n./.j.<.w.b.b.b.b.b.y.% % % % / b.b.j.>.=.=.=.>.@.@.,.,.a.b.b.b.b.b.b.",
"            8X[ X Q b.b.b.b.b.j. .| | f.b.b.b.b.b.b.b.b.v.1X9XY o     b.b.b.b.j.s.s.s.s.s.b.b.b.b.b.m.,Xk.2 P | Z =.b.b.b.b.b.b.",
"            6X} - =.b.b.b.b.b.j. .| | f.b.b.b.b.b.b.b.b.b.(.9X*       b.b.b.b.b.b.b.b.b.b.b.b.b.b.v.).6X3.< W | Z =.b.b.b.b.b.b.",
"            V.K.; =.b.b.b.b.b.j. .| | f.b.b.b.b.b.b.b.b.b.b.  7.O     b.b.b.b.b.b.b.b.b.b.b.b.b.b.b.m.,X9.4.=.Z Z =.b.b.b.b.b.b.",
"            _ | B ! b.b.n.b.b.j. .Z | f.b.b.b.b.b.v.j.j.j.j.          b.n.b.b.b.b.b.b.b.b.b.b.b.b.b.v.n.p.<.%.Z Z %.b.b.b.b.b.b.",
"    | | | H.z G.{ 3.u.P.2Xy.y.y.%.%.%.f.b.b.b.b.b.f.=.=.-.@X-X Xi.4.b.1X6X    b.b.b.b.b.j.a.a.a.v.b.c.Y.b.w.P | ..g.j.a.a.a.a.a.",
"    | | D.dXn n }.5.5 5X%X% % ~ j.b.b.b.b.b.b.b.b.b.b.b.*XyXb b [.2./.9X    b.b.b.b.b.b.f.Z |  .j.R.:Xc }.Y.R A E.1Xf.| | | | | ",
"    | | D.uXyXz i 3.N.4XN.% % ~ j.b.b.b.b.b.b.b.b.b.b.b.=XsX;Xj 7.2.).gX    b.b.b.b.b.b.f.| |  .j.*XdXn M [.Q J.8X_.f.| | | | | ",
"    | | ..#XwXd 8 2.A.) & 4 % ~ j.b.b.b.b.b.b.b.b.b.b.v.R.uX:Xu 1.6.R.8 O   b.b.b.b.b.b.f.| |  .j..XiXrXh 7.Q L.I.@.f.| Z Z Z Z ",
"  d.| | | B.A.6.2., : : 4 % % ~ j.b.b.b.b.b.b.b.b.b.b.b.b..X9.3.Y < 6.3 4   r.b.b.b.b.b.f.| |  .j.x.*X@X9 < Y 8.= o e.>.>.>.>.>.",
"b.f. .| | Z =.s.e.> # $ % % % % j.b.b.    b.b.b.b.j.f.f.f.v.b.b.5.5.h./ D D *.b.b.b.b.b.f.H H J j.b.x.h.l.5.o - C     b.b.b.b.b.",
"b.f. .| ..J.F % : # r oXr $ % %       b.b.b.b.b.b.,.| | :./.b.h.3.b..XOXJ Z ,.b.b.b.b.b.s.% % ~ j.b.b.b.b.5.          b.b.b.b.b.",
"b.f.| | ..5X!.4 4 oXwXaXk t % %       b.b.b.b.b.b.,.Z Z V.8X/.4.z.>XuXsX'.J ,.b.b.b.b.b.s.% % ~ j.m.,Xn.h.4..X  iX    b.b.b.b.b.",
"%.=.,.,.a.).8X( > @XpXtXn l     j.b.b.=.%.%.%.%.%.>.a.,.f.3X3X3.q.qXpXyXb               ;.% % % ` P.9X1X4.z.eXaXsXn 8.%.%.%.%.%.",
"Z  .v.b.h.5.T.C.N 9 h b b       b.b.b.$.Z Z Z Z Z =.b.b.w.i.<X9.3.i k n b                 % % % % y.(.3X5.5.@XqXm z [ | Z Z Z Z ",
"|  .j.b.h.2 I ) = = 9 f         b.b.b.$.Z | | | Z =.b.b.w.< 5.1.2 8 0 z                   % % % % T Y T.9.2.9 h b '.| | | | | | ",
"|  .v.b.b.j.@.N = B Z A         b.b.b.$.Z | | | Z =.b.b.b.j.l.<.2 h.j.                    % % % % t.3.3.1.< T T F._ | | | | | | ",
"f.d.$.O.O.O.o.    =             b.b.b.O.| | | | | =.b.b.b.b.b.b.3.w.b./ @ % % @           % % %   / / ~ 4 = e.f.f.>.| | | | | | ",
"{ [ S S S S       &   % % % % D =.>.=.K S S S S F _ >.>.=.{ { { ( ( { { { { { t.b.b.b.b.s.        % % % % 4 ! >.>.#.S S S S S S ",
"% % % % % %       # % % % % % % Z | Z D % % % % % F | | B % % % % % % s.b.b.b.b.b.b.b.b.b.      % % % % % # B | | G % % % % % % ",
"% % % % % %         % % % % % % H | Z D % % % % % C.&.V = % % % % % % s.b.b.b.b.b.b.b.b.b.      % % % % % % G | | G % % % % % % ",
"% % % % % % % % % % % % % % % % H | Z D % % % % M.5XJ.X E h.          j.b.b.b.b.b.b.b.b.b.      % % % % % % G | | G % % % % % % ",
"% % % % % % % % % % % % % % % % H | Z D % % % % w !.K.- o.b.          b.b.b.b.b.b.b.b.b.b.      % % % % % % S | | G % % % % % % ",
"] ] ] ] ] ] ^ % % % % % % % % % H | Z D % % % % % / T.Y @.,.          ,.,.,.f.b.b.b.b.b.b.      % ` ] ] ] ] :.=.=.' % % % % % % ",
"b.b.b.b.b.b.] % % % % % % % % % Z | Z D % % % % % Z.b.h.R Z Z #.X.| | | Z Z ,.b.b.b.b.b.b.b.b.b.  b.b.b.b.b.b.b.b.t.% % % % % % ",
"b.b.b.b.b.b.;.@ % % % % % % % % =.>.=.~ % % % % Q.v |. X9.C &.2X&.| | | | | ,.b.b.b.b.b.b.b.b.b.b.b.b.b.b.b.b.b.b.;.% % % % % % ",
"b.b.b.b.b.b.        % % % % % ~ j.b.b./ % % $ F.pXm n z [.U 2X4X..| | | | | ,.b.b.b.b.b.b.b.b.b.b.          b.b.b.;.% % % % % % ",
"b.b.b.b.b.b.        % % % % % ~ j.b.b./ % % $ r qXsXk s q ( `.:.Z | | | | | ,.b.b.b.b.b.b.b.b.b.b.          b.b.b.;.% % % % % % ",
"b.b.b.b.b.b.        % % % % % ~ j.b.b./ % % % $ oXwX].7 . 8.} + P | | | | | ,.b.b.b.b.b.b.b.b.b.b.          b.b.b.t.% % % % % % ",
"%.%.%.%.%.%.a.b.b.{ % % % % % ~ j.b.b.y.t.K G G ' A.w.w.< ; P B Z | | | | | ,.b.b.b.b.b.f.%.%.%.%.d.b.b.b.b.      ] % % % % % % ",
"Z Z Z Z Z Z ,.b.b.t.% % % % % ~ j.b.b.b.b.o.| | | %.n.h.! Z | | | | | | | Z ,.b.b.b.b.b.f.| Z Z | d.b.b.b.b.        % % % % % % ",
" . . . . . .,.j.j.*.% D D D % D j.b.b.b.v.%. . .I.g.j.3.*.V.+XD.A H H  . . .,.j.b.b.b.b.f.| | Z H -.h.h.h.h.        % ~ ~ ~ ~ ~ ",
"j.j.j.j.j.v.=.|  .| Z Z Z Z Z  .j.b.b.b.b.j.j.j.7X2X[ U Q.uXaX;Xy % % r.v.v.=.%.b.b.b.b.f.| | H D % % % % %           j.j.j.j.j.",
"b.b.b.b.b.b.=.Z | | | | | | |  .j.b.b.b.b.b.b.b.^.0XJ.N G.wXyXn d % % s.b.b.d.  b.b.b.b.j.f.f.a.D % % % % %           b.b.b.b.b.",
"b.b.b.b.b.b.=.Z | | | | | | |  .j.b.b.b.b.b.b.h.2.p.L.U 8 f x x e % % s.b.b.    b.b.b.b.b.b.b.j.~ % % % % %           b.b.b.b.b.",
"b.b.b.b.b.b.=.Z | | | | | | |  .j.b.b.b.b.b.b.j.<.1 R , = * u p % % % s.b.b.    b.b.b.b.b.b.b.j.~ % % % % %           b.b.b.b.b.",
"j.j.j.j.j.j.%.Z | |  . . . . . .f.j.j.b.b.b.b.b.b.,.C ; > % % % % % % s.b.b.    b.b.b.b.b.b.b.j.~ % % % % %           b.b.b.b.b.",
"~ ~ ~ ~ ~ ~         j.j.j.j.j.f.o. . .f.b.b.b.b.b.j.j.h.3 % % % % % % s.b.b.b.b.          b.b.j.~ % % % % % S | | |             ",
"% % % % % %         b.b.b.b.b.j. .| | f.b.b.b.b.b.b.b.j.T % % % % % % s.b.b.b.b.          b.b.j.~ % % % % % G | | |             ",
"% % % % % %         b.b.b.b.b.j. .| | f.b.b.b.b.b.b.b.b.r.% % % % % % s.b.b.b.b.          b.b.j.~ N.w 4 4 % G | | |             ",
"% % % % % M.        b.b.b.b.b.j. .| | f.b.b.b.b.b.b.b.b.s.% % % % % % s.b.b.b.b.          b.b.j.S.4X5 o 4 % G | | |             ",
"S F % % S.~.4 o : ;.b.b.b.b.b.j. .| | f.b.b.b.b.b.b.j.b.r.% % % % % % r.b.j.b.b.          b.b.j.C.%X6 : # # G | | |             ",
"D D % % D.%X: & % D ^ `         f.f.f.j.b.b.b.b.b.y.^ ^ ^ % % % % % % ^ ^ ^ y.b.          b.b.j.s.T.L.1 s.s.f.f.f.j.b.b.b.b.b.b.",
"% % % % w D.0.: % % % %         b.b.b.b.b.b.b.b.b.;.% % % % % % % % % % @ @ t.n.          b.b.b.b.x.b.w.l.n.b.b.b.b.b.b.b.b.b.b.",
"% % % % % w ~ > D D % %         y.y.y.j.b.b.b.b.b.{ % % % / / / / / / ` ` / ;.t.          b.b.b.XX-X Xu.! a.^.,Xb.b.b.b.b.b.b.b.",
"% % % % p a / C B H S.E.v.b.b.h.% % % y.b.          % % ~   b.b.b.b.b.b.    ^ % % % % % D ] ` $XtXn n '.L [ 6X1Xb.b.b.b.b.b.b.b.",
"% % % Q.yXb z Z.L :.gX,Xv.b.b.j.~ % % s.b.          % % %   b.b.b.b.b.      % % % % % % % % $ Q.iXyXz 0 N J.3Xm.b.b.b.b.b.b.b.b.",
"% % # #XsXv x 9 N I.gX/.b.b.b.j.~ % % s.b.          % % %   b.b.b.b.b.      % % % % % % % % % e qXwXd < I L.3.Y h.b.b.b.b.b.b.b.",
"% % $ F.iXrXg 3 I E.  <.k.b.b.j.~ % % s.b.          % % %   b.b.b.b.b.      % % % % % % % % # % C.Z.I - o I E 5.b.b.b.b.b.b.b.b.",
"D D D ~ OXG.8 1 , ( = E f.f.f.a.D % % ^ / % % % % % % % %             D % % % % % % % % ~ -.-.-.o.o.$.W R W >.f.f.j.b.b.b.b.b.b.",
"Z Z Z Z Z Z ,.w.<.W Z | | | | H % % % % % % % % % %                   % % % % % % % % % D | | $.^.v.j.2.j.R.$X_ | =.b.b.b.b.b.b.",
"| | | ..&.Z -.3.j.k.C.| | | | H % % % % % % % % % %                   % % % % % % % % % D Z | &.6X).w.i.=XeXsX@X_ %.b.b.b.b.b.b.",
"| | Z V.2X&.W i.&XfXpXA.| | | Z D % % % % % % % % %                   % % % % % % % % % D Z | ..1X8X5.9.#XpXtXb Z.%.b.b.b.b.b.b.",
"| | Z &.5X`.U W.wXaXtXx { | | Z H H H D % % % % % %         b.b.b.b.b.^ % % % % % % % % D Z | C Y E.8.P u h n {.J =.b.b.b.b.b.b.",
" . . .A :.`.R 3.].#Xn {.#. . . .| | | D % % % % % %         b.b.b.b.b./ % % % % % % % % F  . .W < T ) = < 0 h Z.| %.j.b.b.b.b.b.",
"j.j.j.3.o p.9.; 7 s z  Xv.j.j.f. .| Z D % % % % % ] b.b.b.  b.b.b.b.b./ % % S Z Z Z Z Z $.j.j.j.j.h.<.2 w.k.=.Z | | O.v.b.b.b.b.",
"b.b.b.j.l.w.1 = B W c.b.b.b.b.j. .| Z D % % % % % ] b.b.b.  b.b.b.b.b./ % % G | | | Z Z o.b.b.b.b.b.b.w.4.n.%.Z Z Z  .v.b.b.b.b.",
"b.b.b.b.b.b.a.E ! d.b.b.b.b.b.j. .| | G S S S S F :.b.b.b.b.b.b.b.b.b./ % % _ >.>.>.>.>.,.b.b.j.,.,.,.@.! ,.>.>.>.>.,.b.b.b.b.b.",
"    b.b.b.b.b.w.w.b.b.b.b.b.b.j. .| | | | | | | | =.b.b.b.b.b.b.b.b.b./ % % t.b.b.b.b.b.b.b.b.j. .Z | Z A Z ,.b.b.b.b.b.b.b.b.b.",
"    b.b.b.b.b.h.h.b.b.b.b.b.b.j. .| | | | | | | Z =.b.b.b.b.b.b.b.b.b./ % % ;.b.b.b.b.b.b.b.b.j. .| | | | Z ,.b.b.b.b.b.b.b.b.b.",
"    b.b.b.b.b.b.b.b.b.b.b.b.b.j. .| | | | | | | Z =.b.b.b.b.b.b.b.b.b./ % % ;.b.b.b.b.b.b.b.b.j. .| | | | | ,.b.b.b.b.b.b.b.b.b.",
"            b.b.b.b.b.b.b.b.b.j. .| | | | | | | Z =.b.b.b.b.b.b.b.b.b.[     s.b.b.b.b.b.b.b.b.j. .| | | | | ,.b.b.b.b.b.b.b.b.b."
};
